<?xml version="1.0" encoding="UTF-8"?>
<svg id="Layer_1" xmlns="http://www.w3.org/2000/svg" version="1.1" viewBox="0 0 848.5 850.2">
  <!-- Generator: Adobe Illustrator 30.3.0, SVG Export Plug-In . SVG Version: 2.1.3 Build 182)  -->
  <defs>
    <style>
      .st0 {
        fill: #29352b;
      }

      .st1 {
        fill: #424a3e;
      }

      .st2 {
        fill: #2e3229;
      }

      .st3 {
        fill: #2c352c;
      }

      .st4 {
        fill: #ebe6db;
      }

      .st5 {
        fill: #444e40;
      }

      .st6 {
        fill: #373c30;
      }

      .st7 {
        fill: #394337;
      }

      .st8 {
        fill: #8a8b71;
      }

      .st9 {
        fill: #2c372e;
      }

      .st10 {
        fill: #495143;
      }

      .st11 {
        fill: #364136;
      }

      .st12 {
        fill: #848670;
      }

      .st13 {
        fill: #555a4b;
      }

      .st14 {
        fill: #40493d;
      }

      .st15 {
        fill: #3c4438;
      }

      .st16 {
        fill: #909075;
      }

      .st17 {
        fill: #8c8c72;
      }

      .st18 {
        fill: #878669;
      }

      .st19 {
        fill: #484f43;
      }

      .st20 {
        fill: #83856c;
      }

      .st21 {
        fill: #6c6e5c;
      }

      .st22 {
        fill: #767864;
      }

      .st23 {
        fill: #404c3f;
      }

      .st24 {
        fill: none;
      }

      .st25 {
        fill: #8a8c71;
      }

      .st26 {
        fill: #373e35;
      }

      .st27 {
        fill: #949378;
      }

      .st28 {
        fill: #323c31;
      }

      .st29 {
        fill: #4c5346;
      }

      .st30 {
        fill: #4e5445;
      }

      .st31 {
        fill: #27322a;
      }

      .st32 {
        fill: #3a4338;
      }

      .st33 {
        fill: #97967b;
      }

      .st34 {
        fill: #4e5447;
      }

      .st35 {
        fill: #505649;
      }

      .st36 {
        fill: #464d40;
      }

      .st37 {
        fill: #555b4c;
      }

      .st38 {
        fill: #363f34;
      }

      .st39 {
        fill: #a19e83;
      }

      .st40 {
        fill: #939177;
      }

      .st41 {
        fill: #5a5f4e;
      }

      .st42 {
        fill: #71745f;
      }

      .st43 {
        fill: #ebe4d7;
      }

      .st44 {
        fill: #374035;
      }

      .st45 {
        fill: #222921;
      }

      .st46 {
        fill: #323b31;
      }

      .st47 {
        fill: #87896e;
      }

      .st48 {
        fill: #2f392f;
      }

      .st49 {
        fill: #959478;
      }

      .st50 {
        fill: #3c4539;
      }

      .st51 {
        fill: #8e8e75;
      }

      .st52 {
        fill: #81836a;
      }

      .st53 {
        fill: #424a3c;
      }

      .st54 {
        fill: #949377;
      }

      .st55 {
        fill: #efe7dc;
      }

      .st56 {
        fill: #2c382e;
      }

      .st57 {
        fill: #283128;
      }

      .st58 {
        fill: #434e41;
      }

      .st59 {
        fill: #5c6251;
      }

      .st60 {
        fill: #545b4d;
      }

      .st61 {
        fill: #6f725f;
      }

      .st62 {
        fill: #767963;
      }

      .st63 {
        fill: #484f41;
      }

      .st64 {
        fill: #3f483b;
      }

      .st65 {
        fill: #41493d;
      }

      .st66 {
        fill: #909176;
      }

      .st67 {
        fill: #394338;
      }

      .st68 {
        fill: #252d25;
      }

      .st69 {
        fill: #434c3f;
      }

      .st70 {
        fill: #929176;
      }

      .st71 {
        fill: #f7f1e8;
      }

      .st72 {
        fill: #434b3f;
      }

      .st73 {
        fill: #86886e;
      }

      .st74 {
        fill: #505648;
      }

      .st75 {
        fill: #424a3d;
      }

      .st76 {
        fill: #919074;
      }

      .st77 {
        fill: #394236;
      }

      .st78 {
        fill: #9b997e;
      }

      .st79 {
        fill: #54594a;
      }

      .st80 {
        fill: #344035;
      }

      .st81 {
        fill: #676a58;
      }

      .st82 {
        fill: #8c8b71;
      }

      .st83 {
        fill: #8e8e73;
      }

      .st84 {
        fill: #131b14;
      }

      .st85 {
        fill: #4a5245;
      }

      .st86 {
        fill: #2d372e;
      }

      .st87 {
        fill: #5d6151;
      }

      .st88 {
        fill: #636756;
      }

      .st89 {
        fill: #374236;
      }

      .st90 {
        fill: #40483c;
      }

      .st91 {
        fill: #485042;
      }

      .st92 {
        fill: #384136;
      }

      .st93 {
        fill: #323c32;
      }

      .st94 {
        fill: #262c26;
      }

      .st95 {
        fill: #98967b;
      }

      .st96 {
        fill: #97977c;
      }

      .st97 {
        fill: #384236;
      }

      .st98 {
        fill: #8e8e74;
      }
    </style>
  </defs>
  <g>
    <path class="st43" d="M293.9,230.3c1.4,2.5,1.5,11.1-2.5,8.8v-5.7c0,0,0-1.9,0-1.9-1.2-.8-.7-4.9,2.5-1.2Z"/>
    <path class="st43" d="M301.8,284.7c-.5,2.9-.5,6-2.1,9l-2.9-7.8,3.7-9.3,1.3,8.1Z"/>
    <path class="st78" d="M434.2,130.7c3,1.7,6,2.6,9.7,3,11.7-.7,22.5,3.4,32.5,12.3,7.5-1.1,14.3,11.1,14.2,18.4,5.2-4,11.5,4.7,6.9,8.9,6.6,1.6,14.7,13.8,10.8,19.3,1.3,6.3,2,12.7,2.2,19.2l-2.8,1c-10.6,3.2-10,8-8.2,18.4-.5-10.1,9.6-14,6.1-3.4.7,3.6,1.3,7.4,1.9,11.3l.2,1.9c3.3-.2,4.3,2.4,3.1,7.9.7,1.1,1.2,2,.1,4.8.7,4.7-5.3,6.7-7.2,4.5s6.4.2-3,2.6c-3.7,1-6.7-2.7-8.8-5.4-1.7-4.2-3.6-8-5.9-11.2-7.7,4-12.5.2-14.5-11.6,8.8-3.8,8.4-11-1.3-21.5-2.8-8.2-1.8-15.8,7.1-15.9.5-.6-2.1-15-2.5-15.8s-4.7-4.4-5-4.6,7,1.9,3.7,6.6-9.1,3.3-7.1-2.4c-9.3-.9-15.5-5.7-18.8-14.4-8.8-2.1-11.4-2.1-19.8-1.6s-1.7-.3-2.6-.8c-4.8-2.9-7.5-10.3-1.5-13.2-3.7-5.3-5.8-16.6,1.3-19-.4-4.2,7.1-1.2,9.3.6Z"/>
    <path class="st93" d="M334.3,341.8c4,8.8,3.1,14.4-2.6,16.6,5.3,9.6-2.7,15-11.2,9.2l-3.4,1.4c-8.4-2.6-7.7.5,1.8,9.4,2.4,9.3-15.4,14.3-20.4,6.8-3.3,2-6.2.8-9-1.4-11.2,3.1-16.3.9-15.4-6.7-4.6,1.4-8.9.5-11-4.2-3.8,0-7.2-1.4-9.5-4.4-2,0-1.9-1.9.3-5.5-5.1-4.1,4.2-12.8,9.9-12.8.4-.6.7-1.6.9-2.2,3.2-6.8,14.8-10.1,21-5.1,4.5-2.4,9.7-2.7,15.5-.9l17.5-2.9,2.8,3.3c6.5-5.1,10.7-5.2,12.7-.5Z"/>
    <path class="st0" d="M428.3,483.6c.7,2.9.9,6,.7,9.3,3.8,6.3,4.3,11.2,1.5,14.5l1.2,12.5c5.9,8.7,8.5,17.1,7.9,25.3-8.4,2.8-5.4,14.9-2.2,20.3-.7,5.5-2.7,9.8-5.8,13.2,2.1,3.1,5.2,9.9.7,11.5,0,1.9-.1,3.9-.3,6.1,2.7,5.6,2.8,9.2.3,10.8,1.7.1,3,1.4,3.7,3.8,1.6.6,1.6,1.2,0,1.9.4,3.9,1.1,7.6,2.1,11.2,3.7-.2,3.6,1.3,0,2.4,2.6.9,4.9.6,6.9-.9-1.6-4.6.2-5.1,4.5-3.4,2.7-5.2,6.2-3.1,10.7,6.1l6.3.3c15.3-9.4,20.8,10.3,9,10-.2,0,3.2-2.2,1.6,2-6.3,4.5-12,10.5-16.1,17.3-2.1.9-4.2.3-6.3-1.8l-2.8,1.2c7.6.6,8.5,8.4,2.3,7.8,0,2.9-.8,3.8-2.9,4.8-5.7,2.6-25.1,1.3-25.2-7.4-7.9-2.2-15.2-5.8-21.9-10.8-6.4,1.3-19.2,1.4-23-3.5-3.7-1.4-7.6-3.8-11.7-7.4l-12.9-5.7.4-3c-9.5-1.1-20.2-15-9.8-19.7,5.4-2.5,8.9,4.8,2.9.2-4.7-3.6-4.4-6.2-1-11.1-6.8-3.2-9,.3-6.4,10.6-.3,1.9-.7,4.1-1.8,5.7-5.8,8.2-7.6,6-11.2-1.2s-4,5.7-2.4,7.2l-3.9,2.1c-5-.2-3-.5-7.8-1.5l-2.7-1c-1.8-.9-2.5-.2-4.2-1.6-.6-3.7,2.9-6.9,7.9-5.4-1.5-1.7-.1-17.2.9-18.4,1.6-2,3.7-2.6,6.1-3,2.2-5.2,6.1-9.6,11.7-13.2,0,0-1.7-1.7-5.1-5.2,3.1-3.7-2.7-5.9-3.3-4.1-5.7,16.8-12.6,4.4-16.2-6.3l5.5-9.6c-9.2,1.9-22.7-.2-17.6-11.4-8.1-4-13.3-9.7-5.3-16.4l-3-4.3c5.6-4.3,11.9-8.2,18.9-11.5.1-5.3,3.1-9.5,6.7-4,5.4.2,3.9,9.7,2.3,14.2s.4-7.7,3.1-7.5c.4-1.5,1-1.5,1.9-.2,5.6,4.1,8.4,6.1,8.4,6.1.3,2.7,3,4.4,8,5.1,1.5,3.2,4.7,3.7,9.6,1.7,5,8.9,28.7,19.1,22.2,3,.1-5.2,2.3-7.6,7.4-6.2l.2-7c-8.1-3.5-7.6-10,1.3-19.7-3.5-7.5,1.2-11.9,8.5-8.6,2.1-6.3,8.2-8.4,12.5-2.7.4,8.9,3.6,11.4,9.7,7.3-7.3-5.4-3.5-12.7,4.7-12.1l-1.4-1c-1.5,1.5-3,.7-4.3.6-2-.1-2.9-2.7-1.5-3.7l6.9,2,.9,1.3c4.7-11.5,14.5-9,11.9,2.1Z"/>
    <path class="st56" d="M454.2,665.1c1.7.6,2.6,2.5,2.6,5.8-1.6,10.3.8,21.1,5.2,30.3,3.4-.3,6.3,2.1,8.7,7.3,6.4,4.2,9.2,8.5,8.5,13,.8,3.3.8,9.3-2.8,10.9l-8.8,3.9c0,2.8-6.1,3.2-8.9,2.2-3.4.8-6.4,2.1-9.6,4.1l-1.5-1.9c-9.2-1.1-18.7-.4-28.6,2l-13.7-1.7c-5.4.5-13.8.7-17.4-2.8-.1-.4-.2-1.2.8-1.7-11.3-1.7-14.2-5-8.5-10.1-6.4,1.6-13.1,2.1-11.7-6.5,1.5-2.2,3.5-5,6.1-6.8,4.9-3.4,5.3-8.2,7.5-11.8,9.2-15.3,9.6-33.9-1-48.7-1.6-2.4-1.6-4,0-4.6,12.7-2.7,17.3,4.1,22.9-1,6.6,4.1,14.6,10,22.5,11.7s4.8-1,5.2.2.2,3.6-1.8,6.6c7.9,1.4,16.4,2.6,24.2-.3Z"/>
    <path class="st8" d="M597.5,517.1c1.7-.2,1.8.3.5,1.5,2,3.5.3,4.5-2.5,6.1,5.7,2.5,8.1,5.7,7,9.5,1.7.1,1.9.8.5,1.9-1,2.7-2,4.8-3.1,6.4,9.1,1.1,14,2.9,4.6,10.4l1.2,4.1c3.6-3.6,7.6-5.5,11.9-5.4-3.9-2.4-3.6-6.3-.3-9.3,1.6-1.4,24.9-3.1,23.3,4.5,1.8,0,1.6,3.6,1.1,5.5l-1.6,15.4-12.9,15.3c-2.7-.4-3.7.8-3.1,3.5-2.4,2.8-4.7,7.3-9.4,8.1s-9.7,4-13.9,7.3c-3.3,0-4.9-1.5-3.4-4.4-6,.4-10,0-10.1-7.4-9.3,2.6-15.7-4.4-9.5-12.5-1.3,0-2.9-2.6-2.3-3,3.7-2,.5,8.3-.7,10.5-3.5,6.5-8.3,14.2-16.7,12.8.3,3.7-1.2,3.6-2.3,0-2.2,3.2-3.4,2.2-1.7-1.5-7.8-4.1-7.8-13.8-4.1-20.1-5.4-5.6-1-16.9,4.5-16.6l1.7-3c-2.2-4.9.8-5.1,5.3-3.7l5.9-3.5c-1.1-7.6,0-14.6,8.8-15-.3-7.2-.7-14.2-1.4-21.2-1.4,2.4-5.2-3.5-5.2-4.4-.4-9.8,10.5-3.6,12.3,3.6,7.3-.8,12.4.7,15.5,4.8Z"/>
    <path class="st16" d="M600.9,601.7c-9.2,7.3-22.1,7.4-33.6,8.7-3-2.6-1.9-4.2,0-7-6.3,3.3-11.9,1.6-9.1-5.6,1.1-3.7,6.3-3.9,8.7-5.2,1.8-1.8.5-6.2-.5-5.8l-3.6,3.2c-.4.4-2.6-1.6-2.3-2.1l4.3-7.5c2.4,3.5,3.7,5,6.3,6.5.3-6.9,2.5-12.8,6.4-16,.6,2.6,2.4,4.1,3.7,3.9s-.1-2.3,1.1-4.4c2.2-1,3.6,2.4,3.2,3.7-1.3,4.9-8.2,5.7-6,10.4s7.1-.1,17.2.9c-3.5,3.8-5.6,5.3-5.7,8.2,5.3-.5,9-.5,12.8,1.2-2.4,2.8-4,5.1-2.8,6.7Z"/>
    <path class="st66" d="M627.3,582.7l-3.1,3.5c-1.5-3.9-2.7,1.4-5.8,2.9s-2.2-.3-3.6-2.1c-3.1,5.3-6.7,3.4-9.8,2.6-5.7-1.5-5.9-7.5-4.3-12.5-1.8-2.1-4.9-4.1-4.6-7.3.7-.8,3.3.3,4.1.5s2.8-2,3.9-3.9l25,9.5-3.1,4.3c-.5.7-1.2,2.1,1.1,2.5Z"/>
    <path class="st46" d="M454.2,610.6c4.7-1.4,7.2,1.2,5.8,5.8,5.5-3.8,10.3,3.7,2.9,6.5,3.7,0,8.3-1,13.9-3,1.8-1.2,2.2-3.7,5.3-3.3s5.6.5,6.2,3.2c-1.2.9-4.3,4.4-3.4,4.9l3.7,2.2c.8.5,2.3.1,3.1-1,2.7-3.7,5-.6,6.6-.5,4.7.3,4.1,1.3,0,3.4-8,2.5-14.4,7-21.1,11.9-1.3-.8-3.1-.9-3.7-3.4,1.9-.4,5.5-1.6,5.6-3s-1.9-4.8-3.8-4.7l-16,.8c-3-1.4-5.1-9.3-9.8-8.2-3.6-1-3.4-2.5.2-3.2-.7-6.5.7-9.3,4.4-8.4Z"/>
    <path class="st96" d="M567.3,610.4l-14.9.6c-1.6-.6-1.6-1.3,0-2-6.6-4.3-2.4-7.3,3.5-11.2h2.3c.3,1.6,1.6,3.5,2.9,3.7,3.8.6,5.7-4.3,9-5.4,4.6-1.5-1,4.9,1.3,7.8s3,1.9,6,1.2c3.8-1.2,3.8,3.7-.1,2.3-4.8-1.7-9.3-.5-10.1,2.9Z"/>
    <path class="st57" d="M461,657.9c-2.1,3.4-3.6,9.1-4.2,13-1.9-1.4-2.7-3.9-2.6-5.8s1.1-1.5,1.7-1.7c3.5-1.1,0-1.6-7.1-2-1.9,0-4.3-2.3-2.7-4.1,2.4-2.6,5.3-4.5,7.8-4.9s6,2.1,7.1,5.5Z"/>
    <path class="st47" d="M556.3,556.5c6.1,4.8-4.7,4.7-5,12.7-.1,3.5,1.7,5.2,6.7,7.7l-8.2,3.4c4.7,2.3,7,4.5,7.1,7.9-2.1.4-2.8-1.6-3-2.2-.6-1.5-2.2-.7-2.7.3-1.5,3.1,6,5.3,3,10-1.1,2.9-3.6,5.8-7.5,8.8,2.8.1,4.7,1.4,5.7,3.9v2c-3.4.1-8.6,0-11.4,1.9l-3-1.9c-1.7-1,.9-3.3,2.9-3.3l-7.4-4.2c1.6-5.7,4.4-9.3,9.7-11.7l-2.9-2.7,1.5-4.2c-2.6-3.4-4.5-8.7-5.4-13-2.1-12.7,17.1-45.4,19.9-15.4Z"/>
    <path class="st9" d="M356.6,635c-8.6-5.4-19.2-5.8-28.9-7.3-2.2-.1-3.6-.8-4.3-1.9.7-3.3-.9-7.4,1.7-10.5,1.9-2.3,5.4-3.3,7.6-1.8s1.2,3.5.2,6.9c7.5-4,7.3-12,4.2-19.1-.9,3.2-2.6,6-4.9,6-1.2,0-2.6-1.4-4-3.4s-.6-2.8,1.5-3.3c9-2.3,16.6-7.1,25.7.4-2.8,1.4-4.7,3.9-5.8,8.3l8.7-1c1.1-.1,3.2,2.1,2.6,3.5s-7.4,6.3-8.5,5.9l-5.9-2.6c0,3.6,1.8,9.6,5.8,12.2,4.5,2.9,10.7,1.3,16,.4,2.2,3.5,3.2,7.2,1.2,11.4-3.9-3-8.4-6.8-12.9-4Z"/>
    <path class="st31" d="M388.7,736.5c-6.2,0-11.9-.3-16.5-3.3-.4-2.6-2.1-3.7-4-4h-1.6c-.5-3.3,0-6.5,1.9-9.3,1.3,1.4,2,3.2,2.6,5,4.6-1.7,8.4-2.9,13.4-2.7.5,5.1-2,8.4-5.6,10,4.5,1.5,7.5,1.6,9.7,4.3Z"/>
    <path class="st4" d="M387.9,738.3l17.4,2.8-3.1,1.6c-6.8-.6-14.1-.6-20.7-3.2,2.7-1.7,4.8-1.2,6.5-1.2Z"/>
    <path class="st84" d="M372.2,733.2c-1.6-1.1-3.2-2.1-4-4,.8-2.5,1.9-1.5,3.1-.2s3.7,2.5.9,4.1Z"/>
    <path class="st95" d="M510.8,253.7l.4,4.4c5,3.4,1.7,7.5-4.3,5.3l-2.3,4.7c4.2,10.4-11,14.6-14.1,5-8.5,2.5-13.6-11.1-4.3-13.6-7.9,4.2-14.2-6.3-14.6-13.1-5.9,2.8-6.6-1.6-5.6-7.5l-1.4-7.9c-9.4-8.4-10.9-13.3-4.7-14.7-1.2-6.9-1-13.4.5-19.7,5.7.1,6.2-2.3,1.6-7.4,2.8-.9,1.5-6.1,0-6-5.8.3-4.9-2-.9-5.8,1.2-1.1,4.5-.4,4.9,1.7.5.2,1.8,1.8,2.6,1.6s2-1.6,1.9-2.7c-.2-1.9-5.4-2.2-4-4.6,2.4-3.9,3.4,3.6,14.8,1.3-7.6,6.2.9,9.1-.9,24.5l-8.2-.6c-3.4,17.5,16.7,21.8,6.7,30.1,2.2.5,4.1-.2,6.5,2.6l-11.7,2.7c0,4.2,2.8,5.5,4.1,7.1,2.4,3,6.1-1.1,7.9-.9,10,1.5,17.4.9,10.4,3.7-2.7,1.1-4.5-2.1-7.2.4s-.4,2.1.3,2.2c5.5.4,1.2,5.5,7.2,9.6s4.9-.4,7.8-2.2c.9.8,3.7,3.9,4.1,2.9s1.2-2.6,2-3.3Z"/>
    <path class="st40" d="M466.3,179.2l-4.9,1.6,9.8,16.2c-2.1,2.5-5.2,2.7-8.7,1.6.4,3.3-1.4,4.7-1.8,5.7s5.1.7,5.1,1.8c-1.6,1.1-5.1,1.7-5.3,4.3.8.3,4.3,1,4.6,1.8s0,2.7-1.3,3.1l-3.9,1c-4.5-.9-6.7-5.2-6.5-12.9,1-10.6-1.1-13.5-6.1-8.9-3.3.7-5.4-1.3-6.1-6-8.3-5.1-13.8-13.3-16.5-24.7-1.6-.7-1.4-1.2.3-1.6,4-4.9,11.8-6.2,16.9-1.1l8.6-.2c2.3,4.9,3.6,10.7,8.4,13.7,1.4,0,3.9-.7,5,0,1.6.9,2.6,3,2.4,4.7Z"/>
    <path class="st39" d="M507.6,212.8l-.2,15c-.6,1.6-1.2,1.6-2,0,.6-1.3.7-3.2-1.6-3.9l-1,15.4c-3.3-4.1-5.9-5.7-10.1-6.5,1.8-1.6,4-4.4,3.2-5.8l-3.5-6.4c2.4-2.7,5.8-5.5,6.9-9.1.7-2.1,7.1-.8,8.3,1.3Z"/>
    <path class="st12" d="M424.9,130.1l-1.3,19c-3.6,4.5-8.2-1-6-5.6-7.5,7.8-19.1-1.5-17.3-10.3,8.2-1.5,15.8-4.7,24.5-3.1Z"/>
    <path class="st61" d="M423.6,149.1l1.5,13.2c-14.9,8-20.9-15.6-7.5-18.8l6,5.6Z"/>
    <path class="st28" d="M324.6,452.1c-3,3.9-6.9,7-11.9,9.5-1.9-2.6-3.5-2.3-4.3.9.9,3.4,0,3-2.1.3-4.3-.6-8.3.7-12.1,3.9-4.3-4.3-8.9-7.2-13.8-8.5,8.3,8,5.5,20.7-3,11-.2.7-.6,1.3-1.1,1.7,1,4.6-2.4,7.2-10.2,7.9-2.9,4.3-5.9,4.1-10.9,2.2-4.9,2.6-7.9-6.1-3.1-10.7,0,0-3.1-6.1-9.4-18.3-3-.4-2.8-2,.6-4.6,5.3-1.7,8.9-3.9,10.9-6.8l3.5,2.6c2.7-.9,5.8.5,9.2,4.2,1.3-.4,2.4-2.1,3.1-5.2,6.8-2.3,12.8-2.2,17.9.3,3.3-4.7,6.7-7.1,12.7-7,1.2-2.5,2.7-4.4,4.6-5.5-8.7-3-16.5-7.5-23.2-13.6.8-4.7-2.4-5.9-9.6-3.4-2-1.3-3.4-3.1-4.4-5.4,2.4-8.3-1-9.5-3.8-2.8-.6,1.4-2.6,1.6-4.3,1.6h-2.4c-6.3-1.3-8.3-9.4-5.8-15.4-1.6-1.5-2-5,.1-6.3,6.5-7.5,18.5-7.2,21.8,3.8,2.2.4,4.4-.3,6.8-2,6.3,1.8,10.8,4.9,13.7,9.4,6.8,0,12.8,4,10.9,11.2,5.8,2.3,11.7,3.8,17.8,4.5,3.1,5.9,4.7,12.5,4.7,20,16.3-1.6,10.3,25.8-2.9,20.7Z"/>
    <path class="st32" d="M287.9,442.4l-2.8-3.5c1.9-1.8.5-4.6-4.1-8.4,1.2-5.4,1.7-8.3-4-10.7.6,7.6-1.5,11.2-6.2,10.8-2.2-2.3-1-8.1,0-11.6l-3.2-6c-3.1,1.2-5.7-1.1-7.6-6.9,0-1.1,1.4-2.4.2-3.7s-1.8-1.4-2.5-3.8c8.9,1,17.5-7.1,24.6.1-5.3,1.2-7.3,1.8-9.3,3.4-2.9,2.4-1.6,7,1.5,7.7l4.6-2.9,3.8,2.3c1.2.7,3.6-.2,4.3,1.8s0,1.9-.8,2.2-2.5,1.2-3.3,2.6c2.5,3.1,7,2.9,10.9,2.6,2.8,7.8,10.5,4,14.2,9.2,1.4,2,.9,5.1.9,8-2.6-4.1-4.3-1.2-4.7-.1l-2.2,6.3-3-3-11.3,3.4Z"/>
    <path class="st91" d="M287.9,442.4c-5.2,1.6-9.4,3.5-16,1.8.2,3.7-.6,5-1.8,5.8-4.2,2.8-8.3-.5-12.3-6.9,3.5-1.5,6.9-5.2,5-8.9.6,0,1.7,0,2.2-.2-2.9-4,.6-6.7,3.8-2.7l2-.7c2.7-3.4,2.3-7.7,1.9-13.7,2.1-.7,4.9,0,6.7-3.3,1.8,4.8,4.4,7.1,8.7,11.3-3,1.2-4.8,4.6-3.2,5.9s3.7,1.8,6,2.6c.6,3.6-2.4,5.8-2.9,9Z"/>
    <path class="st7" d="M242.7,452c6.3,1.1,6.2,5.3,8.7,11.2s4.8,4.7,4,7.7-1.6,4.4-5.3,5.7l5.1,4.3c0,.7-.3,1.9.2,2.4.8.8,1.7,1.3,2.6,1.6-6.6,3.7-12.5-.7-13.8-8.4-5.1,1.9-8.4-1.4-9.9-9.8l2-3c-2.6-3.5-2.5-6.2.2-8.1,1.7-1.5,2.7-4.6,6.3-3.5Z"/>
    <path class="st48" d="M324.6,452.1c2.3,8.1-12.9,7.2-10.7,11.1l3.2,5.8c-3.7,2.3-7.5-3.8-8.6-6.4-1-2.3-3.2-3.1-3.3-6.5,7.7,1.8,8.1-7.6,10.9-5.8s1.4,1.4,1.3,2.1c-.1,1.8-6.1,2.3-4.4,4.8s1.4,2.2,2,2.1,1.9-2.3,2.3-2.8l7.4-4.2Z"/>
    <path class="st70" d="M553.5,402.5c2.1.3,4.6.5,6.6,0l5,10c5.5-1.3,8.1,2.9,10.8,7.4,2.5-3.2,3.9-5.7,7.1-5.2-3.5,4.1-4.3,6.8-5.4,11.3-4.9-2.8-4.4-7-9.7-8.8,2.2,5.1,2.8,8.5,2.1,14l-.2,2.6c-.4,4.8,5.4-5.6,8.1-6.2s3.3,1.8,4.6,2.9c1.4,1.2,2.6,3,1.7,4.5-6.7,1.6-.7,12.3-.2,11.8,1.6-1.6,6-9.5,6.6-12.2,2.6-3.8,3.8-5,7.2-1.4,4.3-3.3,7.2-.4,4.9,4.4l8.4,11.8c-1.5,4.4-4.4,7.9-10.2,6.6l5.7,9.5c.3.6,2.5.7,3.1.8s.7,1.3.2,1.9c-.9,1-2.2,1-3.8.7-.7,1-.2,2.4,0,3.2.6,1.9-8.8,8-20.9,5.5,2.9,5.7,9.8,5.1,14.8,7.2,3.1,1.8,0,6.2-2.5,3.2-2.6-2.3-5.5-3.1-8.3-2.9s-3.9,2.5-5,5.6c-5.2-3-9.6-1.7-12.7,2-7.9,2-11.2-15.9-3.7-19-3.8-3.7-4.7-6.8-2.6-9.1.8-.5,1.5-1,2.4-1.2,1.7-.4,2,.3,1.9.2-2.7-2.3-4.6-5.9-2.2-8.7-6.5,1.4-9-7.6-2.2-8.9l-.7-4.7c-9.1.3-13.4-6.4-12.9-20.1,4.6-5.2,5.3-9.6,2-13,2.5-1.6,2.7-1.9-.6-1.2,0,.6.2,1.1.6,1.4,1.2.8,3.1,3,3.4,6.2s-4.1,1.4-5.2-.7-.1-2.9.8-4.6l-.7-1.5c-11.2,3.5-4.8-15.8,1.9-5.2Z"/>
    <path class="st17" d="M597.8,433.1c-1,.4-2.9-.3-3.3.5s.5,4.1,1,5.3c-4.8,2.1-7.8,6.3-8.1,11.8-3.8-.6-6.4.2-10.4,1.3,0-2.9,1.8-3.5,3.8-4.2l-5.9-9.4c3.4-2.5,6.1-4.7,7.6-8,1.2,1.1,4.3,1.2,4.7,3.9l6.6-7.3c4.5-2.7,7.8,2.2,4,6Z"/>
    <path class="st33" d="M586.2,310.6c2.4,1.3,4.9,3.2,7.8,5.7,2.7-.8,5,1.7,7,7.5,0,.5.2,1.1.3,1.6l2.9.6c-.5,2.6.4,5.6,2.7,9.1,0,.5.2,1.1.3,1.6,4.4,3.9,6.9,8.5,7.4,13.9,1.7,5.5.5,8.9-3.7,10.3,4.5,1.4,2.7,7.6-1.6,7.9,6.1,3.6.4,19.3-6.7,17.4,2.8,2.3,1.6,5.7-3.6,10.1-3.9-1.8-5.5,1.7-4.9,10.5,3.4,3.2,2.8,14.6-.4,17.9,3.7-.4,3.7,1.1,0,2.4,2.3,8.4-11.3,15.3-11.3,3.3l-4.2.9c-13.1,14.6-13.1-4.9-12.2-15.2-3.9-1-8.3-10.8-6-13.6-.4-3.2,2-4.9,7.3-5.1,1.8-2.5,4-4.2,6.6-5.1.2-6.9,2-8.7,5.4-5.2l3.2-3.5c5.4,1.4,9,.3,10.9-3.3-9.1-5.8,3.5-12.4,6-10.6s-5.9-.4-6.5-.9c-9.8,1.7-14.7-1-14.5-8.2l-3.6-4.8c-.4,1.6-1,1.5-1.8,0-3.2-2.2-3.2-3.9-.9-6.6-3.8-9.2-9.5-30.7,4.8-30.4-3.9-3.2-7.9-6.5-12-9.7-4.1-.5-8.5-5-7.7-8.7,1.4-6.4,27.7,4.4,28.9,10.4Z"/>
    <path class="st54" d="M576.7,301.6c1.4.7,4.6.6,5.8,1.6,4-1.9,5.4-1,4.2,2.8,3-.2,3.1,1.2,0,2.2,1.2,1.5,1.4,2.1-.5,2.4l-10.9-6c-5.6-3.1-9.7-6.4-16.8-4,3.9,4.2,7.3,5.2,11.9,5.3-.1,1-.6,2.1-.2,4,4.2,1.3,9.5,4.3,10.9,9.1s-5.4,5-9.4,3.1c0,9.5.4,16.2,2.5,24.8,3.6-5.7,2.4-10.6,9.1-14.8,1.9,3.6-1.6,5.9-5,7.5,2.6,1.8,4.3,2.2,5.6,4.6-5.3,2.8-9.3,6.4-10.9,11.6.4,6.4-10.8,3.4-14.5-1.2-9.2,5.5-12-.4-10.7-9.7-13.5-4.1-15.3-23.9-.8-14.3,5.6-3.8,8.2-6.7,7.8-8.6-4.4-8-4-12.6,1.4-13.8-7.5-8-3.4-15,7.9-12.2,2.8-6,10.9.5,12.6,5.7Z"/>
    <path class="st54" d="M579.4,387c1-2.8,3.7-5.7,3-7.9-1-3.2-4.5-5.5-7.3-5.7,2.6-1.6,4.4-4.1,3-7.2-1,2-2.2,4-3.9,4.5-5.4,1.6-2.7-7.6-7.4-8.8,4.3-1.4,6.4-.8,10.3-.5l-2.2-5.7,14.6,3.9c.4,1.5-1.1,3.3-2.5,2.9l-5.5-1.7c-.6,2.1.7,3.4,2.5,5.6,4.6-3.5,15.2-.3,15.9.6s3.3,4.2,2,5.1c-3.5,2.3-6.6,2.1-9.2,1.5,1.7,3,4.2,4.1,4.6,5.7s-1.3,5.1-3.5,6.7c-4.1,2.9-9.8,1.4-14.4,1.1Z"/>
    <path class="st18" d="M594,316.3c-3.6,1.7-5.3-4.3-7.8-5.7l.5-2.4c2.9,2.3,5.2,5.1,7.3,8.1Z"/>
    <path class="st98" d="M579.1,401.7c.9-2.5,4.7-1.7,5.1-.1s.1,2.7-1,4.2-5.3-.5-4.1-4.1Z"/>
    <path class="st77" d="M331.3,276l4,1.5,3.4,22.7c2.8,6.5,4,13.8,3.7,21.8-1.6,2.5-3.9,4.7-6.9,6.4,3.5,2.6,3.9,6.6,1.1,12-.8.1-1.8.9-2.5,1.4l-12.7.5c-3-4.5-1.6-6.2,3.2-3.6,2-3-4-14.2-6.9-9.7l-4.1-1.1c-4.7,3.1-7-1.1-7-12.6-4.2-3.5-2-15.7-.1-21.5l.9-3.6c-2.3-6.4-.4-9.4,5.6-9.2,5,.4,10.3-1.1,15.8-4.5-.8-3.6.7-3.8,2.4-.5Z"/>
    <path class="st90" d="M313.7,327.9c6.8-4.7,12.7,5,11,10.8-1.3.4-2.4,2.3-3.2,3.6-8.2,1.6-17,4.6-24.7,0-4,4.9-7.9,1.8-11.1.5v-2.8c-.1,0,6.2-3.6,6.2-3.6,10.3.3,13.4-1.4,9.4-5l-1-4c.7-1.4.4-4.7,2.6-5.4,1.1-2.9,2.4-5.2,3.9-6.8,2.2,1.5,2.7,4.3,7.1,5.5-1.4.5-3,1.9-2.9,3s1.7,3.4,2.7,4.1Z"/>
    <path class="st69" d="M258,484.9c0,.6.4,1.6.6,2.1-3.2,6.4-23,6.8-24.3-1.8-2.8,2.5-4.1,1.7-3.1-1.9-4.5-.1-10-.6-7.4-5.9,10.8,1.2,4.4-14.5,3.9-15,1.7-3.7,6.1-4.6,8.8-6.9,1.6,3.2,3.3,6.1,6,8-2.5,1.3-4,3.2-4.8,4.4s1.4,6.3,3.1,5.8c2.4-.7,3.4-4.6,8.1-3.5-2.4,4-.5,7,.5,9.4,1.6,4.2,4.5,6.4,8.7,5.3Z"/>
    <path class="st88" d="M218.3,470.4c-3.1,1.5-4,.4-1.9-2.3,2.5-2.7,6-4.5,9.5-5.3,2.9-.5,6.4,10.5,4.5,12.9-7,8.5-16.3,3.4-12.1-5.3Z"/>
    <path class="st13" d="M231.1,483.3c.7,4.1-2.4,5.7-9.3,4.7-1.4,2.3-2.6,3.8-5.7,3.7-7.7,2.5-11.3-10.1-5-14-3.7-1.6,3.8-9.5,7.1-7.2,1.3,3.8,4.3,6.8,8.8,7.4,1.2-5.9,1-10.8-1.2-15l1.8-.4c0-.2,2.7-.8,2.9-.2.3,1,.4,2.9-.9,5.2,1.8,1.8,5.2,2.8,6.3,6.3-3,3.5-6.4,3.8-10.7,6.1l5.9,3.5Z"/>
    <path class="st6" d="M218.3,470.4c-2.7,1.1-7.3,4.2-7.1,7.2-1.4,5.3-3.1,5.8-5.4.8l5.1-6.4c1-1.3,3.1-2,3.6-4.1h1.9c.8.5,1.6,1.6,1.9,2.4Z"/>
    <path class="st81" d="M400.4,133.1c3.6,2.7,5.7,6.1,7.9,10.1,2.9-.7,6.9-2.4,9.3.2-4.8,4.9-1,9.5-5.5,14.6,4.8.8,8.8,2.2,13,4.2l-.3,1.6c-.1,6.5-.2,9.7-.2,9.7-2.6,3.4-5.6,4.9-9.1,4.6-.4-2.5-9.2-15.8-10.6-16.7-2.7-1.8-9.6,2.7-11.8,4.6-3.5.3-5.5-1.1-6-4.3-4.1,3-11.5-4.8-7.7-8.8,6.7-5,6.8-9.1.3-12.1v-3.2c6.2-5,13.6-3.3,20.6-4.6Z"/>
    <path class="st22" d="M379.5,153c-8.4-3.8-9.8-7.1-4.2-10,.8-2,2.7-4,4.4-5.3,1.3,2.1,4.8,1.8,8.1-.6,1.9,2-.3,3-1.5,3.7,2.2,2.9,2.7,6.3,1.6,8.5-1.9,3.9-4.9,4.6-8.5,3.7Z"/>
    <path class="st87" d="M368.1,151.2c3.5,5.4,5.3,8.1,5.3,8.1-4.1,18.2-29.2,8.7-14.1-8.6,1.2-.8,2.2-2.2,3-3.4h2.3c5.4-2.6,8-.5,3.5,3.9Z"/>
    <path class="st21" d="M375.2,143c-.5,4.2,2.4,6.7,4.2,10-.4,5.2-7.9,2.2-7.9-2-.8,4.8-1.4,4.7-3.4.2,0-2-1.5-3.9-3.5-3.9,2.4-3.3,7.6-3.1,10.7-4.2Z"/>
    <path class="st92" d="M391.2,265.2c-.2,4.4-2.6,5.5-6.6,4.9,0,.2-.1.3-.2.4,1,1.2,1.3,4.8,0,5.8s-3.5,2.1-5.5,2.2-2.8-2.9-2.2-4.9l4.2.8c1.4.3,2.6-1,2.7-2.5l-.9-1c-5.8,5.4-11,7.5-16,.5-6.6,1.6-10.6-2.1-12-11.1-4.4,3.4-8,3.5-10.6.3l1,1.3c3.6.5,6.2,3,7.9,6.8-4.2.2-6.4-3.4-8.1-6.1l-1.7-1.1c-2.7,2.9-4.1,1.8-1.8.9,3.8-1.4,3,.7,1.3,3.8,8.7,10.1-5.2,18.3-11.2,9.9l-2.4.5c-2.1,4.4-3.8,5.3-5.1,2.8-5.1,3.8-10.3,1.2-11.2-4.9l-.9,5.2c-2.7,1.2-4.6,3.3-5.5,6.2,0,1.8-.6,3.2-1.7,4-.6,1.6-1.2,1.6-1.8,0,0-1.7-.6-3.4-.8-5.1-2.5.8-2.9-1.9-1.3-8.1l-5.4-11c.4-3,6.8-3.4,9.8-1,7.6-3.3,13-3,16.2.8,5.5-.9,7.6-4.8,6.3-11.7,3.3-2.9,7.1-5.1,11.5-6.5,4.1,2.6,7.3,1.5,9.6-3.3,5.3-.8,6.5-1.1,5.9-7.2-3.3-4.9-1.4-9.3,5.8-13.3-.4-11.2,6.3-13.5,15.7-9.5,10.6-2.7,15.8,4.4,9.6,12.7.7,5.3,4,9,9.7,11.2l.9,13.6c6.1,6.2,3.2,19.5-4.8,13.9Z"/>
    <path class="st34" d="M291.9,336.5c3.2-1.8,6.8-5.6,8.4-9,2.9.4,5.3,1.2,7.2,4.8,3.5-.6,3.3,4.4-.4,3.1-2.2,2.3-4.4,4.9-7,5.1s-6.1-1.5-8.1-4Z"/>
    <path class="st3" d="M306.7,293.8v21.5c.1,1.1,0,3.4-.5,4.9s-1.8,1.4-3.2,1.8l-.2-21c.7-3.9,1.3-7.6,1.8-11.2-.1-1.7.3-3.3,1.7-4,3.9,4.7,4.1,7.3.5,8Z"/>
    <path class="st72" d="M385.7,177.7c2.4,2,5.2,3.1,8.4,3.5l4.2,8.4c7.8-1.9,13.4,4.1,7.8,10.8,5.8,6,11.6,4.2,14-3.7l4.4-.5c7.6,5.3-1.8,13.9,1.5,19.4s1.7,2,1.5,3.1-1.7,1.3-2.1,1.9c-3.5,6.5-7.6,9-12.8,2.1-1.3,4.5-5,5.3-11.3,2.3-6.2,2.9-11.1,2.7-14.7-.6,2.8-12.6,1.1-16.8-5-12.6-3.7-.7-5.5-3.7-5.3-9-5.8.1-10.5,1.9-14,5.4-3.2-1.8-7.6-1.2-13,1.6-1.7,8.5-8.2,15.3-9.4,4.2-3.4-.3-6.1-2.7-8.1-7.1l-2.9.4c-6.5,11-10-6-7.3-12.9,1.5-1,2.6-2.5,3.1-4.2,3.8-.2,4.8-3.1,6.7-5.4s7-5,6.9-9.8c0-.9.5-2.3.8-3.1.8-2.2,4.3-2.7,5.2-4.2,3.4-.2,3.7,1.5,4,3.8,6.5.9,13.1,1.1,19.6.4l8.3,4.1c2.6-11,15.2-8.1,9.7,1.6Z"/>
    <path class="st64" d="M246.5,542.2c1.3,2.1-.6,5.7,3.6,7.9-6.8,3.3-9.2,6.3-6.7,13.7,4.8-6.4,14.7-3.4,18.6,3.1s-.4,4.3.6,4.4l3.7.7,3,3.3c-.3,4.1-.3,8.1-.2,12,5,2.2,1.2,14.2-4.7,9.7-.8,16.7-17.9,9.1-13.7-6.3l-3.5-2.6c-11.6-.3-15.7-5-12.5-15.5-.8-4.7-1.7-5.3-2.8-1.8-6.2-7.2-18.5-2.6-9.9,5.2,9.1,1.6,2.9,12.1-3.6,8.4-2.3-.6-4.5-2.5-6.1-4.4l-1.2.4c-3.4-1.9-4.9-5.9-5.9-9.4,0-.4-.4-1-.5-1.3l-3.1-22.7c2.5-14.4,18.6-19.5,21.7-3.4,1.2,4.2,5.3,4.5,12.2,1,3.6-6.2,7.3-6.9,11.1-2.3Z"/>
    <path class="st29" d="M216.1,491.6c6.6-6.4,9,2.2,1.1,7.6,0,2.9-2.9,6.1-5.3,7.5,1.3,6.2-1.5,7.5-7.2,8.4,2.4,8.3-6.9,11.2-9.2,1.8,0-3.1,1.3-7.1-1.8-9.4l2.5-11.3,6.8-11.3,2.8-6.5c1.6,0,3.3,0,5.4-.8.4,5.6.6,10.5,5,14Z"/>
    <path class="st26" d="M302.5,228.1c1.7.3,1.7.8,0,1.6-1.9,2-3.1,4.2-3.6,6.5,6.2,9.3,4.8,14.6-4.1,16.1,2.2,1.1.8,5.4-1.4,6.1-2.5-6.3-2.1-12.9-2.2-19.4,3.2-1.8,1.1-6.6,2.5-8.8l4.9-7.9c0-.6,0-1.6.1-2.1,3.1-.4,4.3,2.2,3.6,7.8Z"/>
    <path class="st79" d="M368.1,151.2c.9-.1,2.6-.4,3.4-.2,3.9,3.2,8,7,12,11.6-1.1-1.2,0-1.5,3.6-.8.6-.6,1.9-1.2,2.4-.6l2.5,2.5c2-4.5,5.9-5.4,10.3-6.2s5.8.4,7.7,4.3l6.3,13.5,6.8-3.4c-2-3.8-.7-6.6,1.7-8.1-.3,4.1.8,7.9,1.8,12.1-1.6-.2-3.1,0-3.4.8,1,5.7,3.2,12,1.6,17-2.6,5.6-6,5.3-7.5-.8-5.5-1.9-7.7-7.5-6.7-16.7l-15.7,4.2-8.7-.4-.5-2.3-3.3-6.9-1.7,4.3c-.2.5-1.5.4-2.2.5,2,1.2,3.1,3.7,2.4,5.1-4.6.5-9-2.5-13.2-4.8s-6.7.7-8.9,4.2c0-8.2-11.5-1.5-14.4-7.2-.7-1.4,0-3-.3-5.2l7.7-11.8,7.4-5.2c1.5,3.6-.6,7.2-2.1,11.7.5,2.2,5.6,3,7.7,2.7s4.6-1.7,5.7-5.6-4-3-5.8-1.9c2.7-.8,3.3-2,3.3-3.7v-2.6Z"/>
    <path class="st71" d="M211.1,580.3c-2.8.8-6.9-3.5-5.9-9.4,2.3,2.9,4.5,6,5.9,9.4Z"/>
    <path class="st94" d="M218.4,584.3c3.4,1.2,3,2.6-.7,2.8-.9-2-3.6-3.5-5.5-4.7v-2.6c2.8-.8,5,2.2,6.2,4.4Z"/>
    <path class="st9" d="M293.3,528.6c2,1.3.3,6.5-1.6,8.3l15.1,7.4c-3.5.8-7.3,4.1-6.4,6,6,4.9,13.6,3.5,20,.6,1,7-2,11.2-6.9,14.9,3.7,3,3.5,6.7,5.2,10.7.6,1.3,4.6-.7,4.6-2.5s-1.2-3.7-3.9-5.6c11.6-1.9,19.1,2.7,16.5,4.8l-3.3,2.6c2.2,1.7,4.4,2.8,6.1,2.7s3.3-.9,2.4-2.9-2.8-2.9-2-3.2l2.3-.8c.6-.2,3.2-.1,3.6,1.4,1.1,4.6.4,9.5.3,15l-9.4-3.5c-.1,4.6-5.8,4.5-7.1,7.5l-2.4,5.9c-.4,1-3.8.8-6.3,1.3.9,4.5.2,9.3-1.5,13.2,1,1.5,3.9,4.8,1.7,6.3-4.5,3-7.8-.3-10.5.8l-1.7.7c-6.8-4.3-15.3-3.6-23.1-3.6h-16.2c-5.8-3.2-15.7-2.9-24.7-7.5-1.6-6.9,9.6-5.8,13.9-3,3.6-2.4,7.4-4.7,11.4-6.8-.4-2.6-.4-5.4-.1-8.5,3.7-2.3,6.6-5.1,8.7-8.4l2-4.4c.8-1.8,4.5.4,5.8.4,7.3.3,10.1-6.8,15.1-10.5,3-2.3,9-5.3,5.2-9.3-6.8,3.3-12.5-5-12.5-5,0-.9,1.6-2.5,3.3-3.7-3.8-.9-5.9-2.5-7.9-7.9-2.8,1.1-5.5,4.9-10,2.5,3.4-1.6,8-3,8.1-6.3-2.1-2.8-3.9-3.7-5.3-2.6-.8.1-3,.6-2.9,1.5l.3,4.3c.2,2.5-6.3.5-6.1-1.8l.8-12.2c.2-3.8,2.3-7.7.3-10.6.8-3.3,1.7-3.9,3.2-.7,0,4.6,3.7,4.5,6.7,6.5l9.1,5.9Z"/>
    <path class="st91" d="M434,591.9c4.7.9,5.2,7.8,3.4,11.5,8.5-3.5,10.1,4.2,11.5,11.6,1.2-1,1.5.3.9,3.9l-.2,3.2c-1.2,1.5-2.7,2.7-4.5,3.4-1,4.8-4.5,4.9-6.9.9v-2.4c-2.2-2.8-2.9-6.5-2-11.2v-1.9c0,0-3.7-3.8-3.7-3.8,0-7.1-5.1-13,0-16.9,2.1-2.6,2.3-1.5,1.6,1.7Z"/>
    <path class="st97" d="M438.2,624.1c-2.3-.7-5.4-2.1-5.1-3.9.5-3.1,1.3-5.5,3-7.3,3,2.6,4.8,7.9,2.1,11.2Z"/>
    <path class="st97" d="M445,625.6v7.7c-4.3,0-7-3.3-6.9-6.8,2.3-.8,4.6-1.1,6.9-.9Z"/>
    <path class="st37" d="M435.6,588.3c3.5,2,2.5,3.8-1.6,3.6l-1.6-1.7c1.4-1.1,1.8-4.1.2-5.5-2.4-2.3-.6-4.6-.9-6,4.4,1.2,4.9,5.7,3.9,9.6Z"/>
    <path class="st97" d="M436.1,611c-1.2.3-2.9,0-3.6-1.2s-.2-1.9-.2-2.6h4.4c1.6,0,1.9,3.6-.7,3.8Z"/>
    <path class="st20" d="M574.9,513.1c4.9,4,5.9,8.5,4.4,16-.4,1.9,1.8,5.7-.5,7.8s-4.7,1.7-6.9,1.6l-1.4,7.8c-.4,2.1,5.7,2.9,9.2.6-1,5.9-7.3,4.1-10.7,5.7s-6.1,5.9-11.8,2.5c-.4,0-1.4.4-.9,1.4-5.5,1.1-1.3-8.5-6.6-8.7-5-.2-2.7,7.3-7.4,10.8-.2,5.6-1.7,10-5.8,13.3-.1,2-.6,4.1-1.8,5.4-11.9-5.6-.3-14.1-7.9-14.8.5-3.6-.1-6.1-2.6-9.9l6.8.8c1.3.1,2.7-2.2,4.1-3.5-4.4-3.2-7.1-5.2-11.3-1.5-3.2,2.8-5.4,6.1-3.2,13-1.1.8-2.8-.6-3.7-2.1s-.7-2.7-.3-5.2l-12.1-1.2c.2-2,.5-3.4.3-4.2s-2.7-.9-3.9-.8c.4,1.6.2,2.6-.5,3.1s-2.3.3-2.8-.2-.9-1-1.3-1.8c2.2-1.4,3.5-4.7,2.4-7.5-.8-2-3.7-5.4-5.9-4.8l.7,4c.2,1-1.5,1.6-1.9,1.1-3-3.2,2.6-11.1-8.1-13.8,5.6-10.8,6.3,9.4,24.6,12.3-2.5,1.4-3.4,2.3-3.4,3.1s1.8,2.1,2.1,1.7l1.5-3c2.9-5.8,7.1-11.8,12.4-15.7l12.7-9.4c1.4,1.3,4,3.9,4.8,3.2l3-2.4,4.3,5.5c1.3,1.6,4.7,1.6,4.7-1.4,0-7.3-.3-16.1,6.7-19.8,4.3-.6,8.7,1.2,13.4,5.4,1,3.7,2.7,5.6,5,5.7Z"/>
    <path class="st41" d="M454.1,581.5l3.5-.8c1.6,3.9,1.8,7.5,1.9,11.8,2-3.9,2.9-7.5,8-7.7-2.8,4.9-3.8,9.5-1.9,15.2-1.5,1.3-2.4,2.3-2.8,3.2-1.6,3.5,3.6,6,3.1,10.9-.7,1.1-2.6,1.9-5.8,2.3-2.3-.7-4.5-3.4-5.8-5.8-1.8-2.4-2.2-6.1-1.4-11.2-3.4-3.6-6.8-4.1-10.1-1.5,6.5,3.2.5,9.3-5.3,5.5-3.3-2.8-4-7.7-3.4-11.5.8-1.1,1.3-2.3,1.6-3.6,1.2-1.5,1.7-3.2,3.5-4.4.6,2.9,2.3,6.2,3.6,5.8s4.5-1.7,4.7-3l.7-6.4,4.8,7.3c3.1-2.5,1-4.4,1.3-6.1Z"/>
    <path class="st52" d="M494.1,554.4c.5-1.3.6-2.8.4-4.7-.4-1.7.2-1.9,1.6-.8,5-4.8,7.8-5.7,8.4-2.8,3.4,2.5,7.3,4,11.8,4.2,9.8-15.5,32.3-2.9,14,7.3l2.5,5.6c-1.2,7.2,0,10.1,3.6,8.7,7.3,1.3,10.2,16.1,8.2,22.7-7,4.6-7.9,7.7-2.6,9.3,0,3-.3,5.9-1,8.8-5.9,3.7-11.4,7-18.3,8.9-7.8.9-20.6-2-17.8-11.8-6.3-10.8-21.6-14.5-20.5,2.2-6.7,4.5-10.2.9-10.4-10.7-4.6-5.8-5-10.8-1.3-14.9,13.2.3,14.7-1.8,4.7-6.2-7,5.1-12.5-1.9-14.5-8.8-4,0-6.6-4.6-2.8-3.6,3.6,1,2.3,12.2-2.8,12.8.9,4.9-.9,5.1-3.5.8-2.9-.7-6.1-1.3-9.3-1.7-7.4,9-12.5-5.4-5.1-12.8,1.2-3.9.1-4.7-3.1-2.5-2.4-5.9-4.7-15.9,2.2-18.8,1.8-8.2-.5-16.8-7-25.8-1.3-3.3-1.2-5.6.6-6.9,4.9-2.7,17.4-6,19.2,2.4,7.5,5.4,11.7.2,14.6-5.9.6-2.4-.8-4.3-4-5.7l-.5-4.2c6.8-3.3,11.3-7.8,13.7-13.5,0-.5-.4-1-.9-1.3l-1.2,2.7c-.3.8-1.3,1.1-1.6.5l-1.7-3c-2-3.5-3.5-6-2.9-9.6,3.7,1.6,6.2,2.1,8.3,1.4s3.6-2.9,4.9-4.9c1.4,3,1.9,4.7,4.5,5.8-.5-4.5-.8-8.9,5-10.5l-2.4,9.4c-1.1,4.3-9.8,6.3-13.1,3-1.1,2.2-.2,3.5.4,4.5l1.6,1,1.7-4.3c5.8-.5,11.5.4,17.3,2.8,2.8,6.8,5.9,13.5,9.3,20.1,10.4,8-5.3,12.7-5.1,10.4s4-3.1,2.3.5c17.2,8.3-5.8,18.1-15.2,8.4,4.4-10-6.4-7-10.3-1.4,5.7,5.7,5.3,13.7-3.9,12.3.4,3.1.2,6-.7,8.9-5.1,2.6-3.6,6.1,4.8,10.5-.9,9.6,1.2,11.2,6.4,4.8l2.6,1.4c2,6.4,4.9,4.7,8.5-5Z"/>
    <path class="st52" d="M466.1,509.4c-1.7,3.4-3.9,6.9-6.6,10.4-4.8-1.2-11.8-3.4-9.3-10.3s9.6-9.7,11.9-5.8c4.1,0,7.2,2,4,5.7Z"/>
    <path class="st62" d="M522.8,621.7l-15.4,4.2c-3.7.4-6.8.2-9.1-.5-7.1,5.4-12.5,5.7-16.1.9,1.3-5-.5-7.1-5.3-6.4-7.1,3.2-14.3,3.4-11-5.9-8.4-2.5-6.7-9.6-4-16.7-6.8-5.9-7.6-9.1-4.4-16.7-1.2-2.8.6-5.5,1.6-8.4-1-1.2-3.6-4-2-6.1,8.3,4.6,5.9-8.3,13.2-6.8-6.4,7-4.6,14.3,2.2,19.6l8.7-5.9c-.4,3.6-.6,6,.6,8.1,1.8-4,1.1-6.1,2.7-5.1s2.6,1.3,2.6,2.3l.7,11.1c-3.6-.2-6.9,0-9.8,1.5-.4-.2-1.2-3-1.9-2.5-7.4,5,3.9,7.5,2.2,19.1s.9,2.9,1.6,3.2c4.1,2.3-.8-7.9,4.6-12.2s5.7-1.1,9.2-.9c5,.2,6.6.7,10.4,5.3l6.3,7.7c-1.4,1.4-3.3,2.9-2.6,4,1,1.6,3.5,1,4.7.9,2.6,2.4,6.1,6.1,10.2,6Z"/>
    <path class="st62" d="M432.3,512.9c-.8,7.7,4.3,13.4,8,19.6l3.1,13.4c-8.2,3.2-9.3,10.3-6.6,16.4,1.3-2.7,2.8-4.6,4-4.6,3.8,0,3.4,9.9,1.7,12.1-2.7,3.4-4.6,7.9-1.5,11.6,1.1-4.3,1.2-6.6,4.9-8.9,1.7,4.6,4.7,6.9,8.7,5.6l-.4,3.3c6.8,4.9,1.4,8.2-5.7,9.7-5.5,2.5-9.7,1.6-12.8-2.8-1.2-3-2.5-6.2-3.9-9.6-.5-2.2-1.5-4.6,0-7.5,7-12.7-6.8-26.8,6.3-27.6,4.3-9.8-12.4-17.4-7.5-36.2.7,1.9,2,3.1,1.7,5.4Z"/>
    <path class="st20" d="M494.5,549.7c4,3.9,8.6,8.8,4.6,14.6-2.3-2.9-1.1-6.1-1.4-8.2s-3.2-.8-3.7-1.7c-1.2-2.4-2.6-.6-2.7.3l-.3,4.4c-.3,4.3-5.3,3.5-4.6-.2.8-4.9-2.9-2.9-3.4-4-.9-2.1,2.4-4.7,3.4-5.5-3.6-.7-7.5,0-8.8-5.3l10.8,1.6c1,.2,3.6-2.5,3.9-1.7l2.2,5.5Z"/>
    <path class="st62" d="M462.5,562.9c-3.7,2.6-4.9,1.1-6.8-.6s-.4-5.6,2.5-5.2c.6,1.3.1,5,4.3,5.8Z"/>
    <path class="st62" d="M446.2,566.6c.5-.5,3.2-1.7,3.4-1,.4.9,1,3.1.6,4.2s-1.9,1.6-3.1.9c-2.1-1.2-3-2.1-.9-4.1Z"/>
    <path class="st76" d="M640.9,524.3c4.1,1.4,7.8,6,1.5,7.6-.8,4.9-1.4,9.8-1.8,14.7-1-.4-2-1.2-2.8-1.1s-2.8,2-2.3,2.6l2.7,3c1,1.2.8,2.6.7,4.4s-7.4-6-6.9-6.9,3-1,3.6-4.2c-2.4-.5-4.1.8-6.5,2.2-3.3-3.7-8.5-4.2-12,1.4,3.6.3,5.7,0,7.4,1.5,3.1,2.7,2.6,7.5.2,13.3-.6-4-2.5-5.9-6.6-7.4-5.9-2.1-9.7,7.6-13.8,6.3s-1.7-9.8-5.7-8.9l-6,1.5c.9-6.9,13-.8,13.4-9.2-4.5,1.7-7.7,1.9-9,0s-1.6-4.9.1-6.2c1.3-.9,4.1-2.5,5.8-2.6,3.1,4.9,10.6,1.2,22.2,4-2.3-7.6,7.2-8.6,2.3-15.1,3.4.6,6.5,1.3,8.1-.4s2.2-4.2,3-6.1c.1,2.1,1.3,4,2.2,5.9Z"/>
    <path class="st16" d="M554.3,596.3c.3.7.9,1.5,1.7,1.5.2.9.7,3.9.1,5.7s-2.5,0-4.7,1.6c3.2,3.4,5.4,1.9,7.6,2,.6.6,1.3,1.2,1.3,1.1-2.4,2.1-5.5.5-7.8.8-4.3.5-8.7,1-11.6-3.1,2.9-3.7,6.3-5.5,7.3-9.9,2.2.5,4.1,1,6.1.3Z"/>
    <path class="st49" d="M621.8,488.6c1-.3,1.8-.6,2-.3,3.4,3.8,10.5,12.6,12.7,16.8l-1.8,4.1c1,1.7,1.3,4.4,3.8,5.3l.3,3.9c1.7,7-.4,10.7-6.1,10.9l-5.5,12.5c-2.2,1.2-30.5,2.6-24.1-5.9l-.5-1.9-.5-4.2c6.3-3,1.8-9.3-4.1-11.4l-.5-1.5c-4.2-.9-5.4-2.6-6.3-6.5-6.5,2.9-11.3,1-14.4-5.7-4.5,2.7-9.4-10-5.4-12.4l-.2-4.9c4.3-1.6,8.4-2.7,12.3-3.4-1.4-4.9-.8-8,1.8-9.3,16.7.3,21.2-4.7,13.5-15l.3-5.6c4-2.1,8-3.7,11.9-5,5.2-1.3,9.6,5.2,7.3,9.2.6,5,2.1,8.2,4.7,9.6,1.7,7.9,1.3,14.8-1.2,20.5Z"/>
    <path class="st83" d="M602.6,534.1c-4.5-3.1-7.6-5.9-13.4-8.2,3.7-4.7,5.8-5.4,8.8-7.3,2.5-1.6,5.3-1.9,9.2-1.8,1.1-4.8,7.3-7.3,12.1-3.1-3.4,1.8-6.5-.3-7.9,1.3-2.2,2.6-2.9,4.6-5,9l6.4-.6c-1.7,5-5.8,8-10.3,10.9Z"/>
    <path class="st83" d="M612.5,508.9c-2.4,2.6-4.3-.7-3-1.4l5.5-3.2c2.3,1.4.8,3.9-2.5,4.6Z"/>
    <path class="st5" d="M465.9,614c1,5.7,5.6,3.9,11,5.9-3.7,2.4-7.3,6.7-11.3,7.6-3.4,0-6.5-2.4-6.5-4.4s2-4.3,5.5-4.8c-1-3.6-3.4-1.7-4.5-2.1-.2-2,4.6-3.6,5.8-2.3Z"/>
    <path class="st63" d="M454.2,610.6c-1,2.7-4.1,4.7-4.4,8.4l-.9-3.9-3.9-8.2c1.5-3.2.8-6.2-2.3-8.9-.3-2.7.9-3.3,2.4-4,5.1-2.2,7.7,3.1,14.2,3l-5.1,13.6Z"/>
    <path class="st44" d="M278.2,582.4l-2.8,7.6.6,2.9c.1.6-2.4.4-4.6-.7-.6,2.5,2.3,5,4.6,6.4-12.4,13.2-30.6,7.4-31.7,10.4-7,0-15.4-3-14.9-10.9-1-3.4-2.9-4.9-5.8-4.5-3.1-1.2-4.6-3.7-5.9-6.5l.7-2.8,4.1-4c1.2-1.1,1.2-3.3-.6-4.4,1.7-4.4,8.7-5.3,12.6-3.4,1.4,2.8,4.3,3.7,5.8,5.4-2.1,1.2-3.4,2.3-3.1,3.6s1.6,1.9,2.5,1.3,1.4-1.5,3.5-2.2c.5,2-.2,2.6.3,3.4s1.9,1.2,2.3.8c.7-.8,1.6-2.8-.3-5,.5-3.4,3.1-2.4,5.3,1.3-.7,1.9-2.1,3.4-.9,4.8,3.7,4.1,10.9-1.4,11.3,3.4s-1.7,1.7-2.4,1-1.9-1.2-3.2-1.1c-2.8,3.5-2.3,12.6,2.6,15.7,3-.6,3.3-5.9,1.1-9.6s3.7-3.5,5.7-2.6,2.5,2.6,3.8,2.7c.7-4.3-2.1-6.4-2.9-8s1.5-2.9,2.5-4c-3.2-1-4.5-2.6-4.8-3.7-1-3.1,6.5-5,2.7-7.6,2.2.4,5.2,2.7,5.5,5.5s.4,5.5-.7,9c3.3,0,6.2-2.2,7.1-4.2Z"/>
    <path class="st55" d="M229.4,598.1c4,4.9,9.9,7.3,14.9,10.9-.2.5-.6,1-1.1,1.3-1.9-.9-4.1,0-6.5.2-5.4.5-9.1-5-8.4-9-.5-1-1.6-2.5-.7-3.6.7-1.6,1.3-1.5,1.8.2Z"/>
    <path class="st45" d="M229.4,598.1l-1.8-.2c-.5-2-2.1-3.5-4-4.3,1-2.3,3.3-1.7,5,.1s2.7,2.3.7,4.4Z"/>
    <path class="st51" d="M445.1,385.8l1.8,1.6c5.1,5.8-.4,11.2-5.2,4.8-2.3-3.2-5.8-3.3-8.7-2.4,0-1,0-3.5-1.5-4s-2.2,0-3.8.9c-2.8-2.4-4.7,1.2-1.9,2.8,1.1,2.6,1.2,4.3.8,6.2s-1.4,1.7-2.5,1.2c-1.1-1.3-1.5-3.2-1.1-5.6-5.6,1.5-6.3-3.9-1.7-5.9-3.4-3.9-5.9-15.6.5-18.3,2.3-2.1,2.4-5.1,1.1-7.8l1.3-5.7c2.1-2.8,2.3-6.5.5-11.1-1.1-.6-1.1-1.2,0-1.9.5,0,1.5,0,1.9.3,4.4-2.4,8.7,0,12.7,7.2,3.1-1.3,5.7-1.5,8.5.8,1.7-4.4,5.1-7.7,9.8-4.9,1.2.7,7.4,16.5,7.3,18s-2.1,4-3.6,5.3c12.7,8.3-.5,15.3-9.9,6.3l-2.4.3c-1.2,4.3-2.5,8.3-4,12.1Z"/>
    <path class="st93" d="M391.2,265.2c3.7,2.1,7.7,3.8,11.9,5.1l4.8,6c.6,3.4,1.8,5.1,3.7,5.1-.3-.4-.9-.4-1-.3-3.5,2.6-4.3-2.5-1.2-2.8.8-3.8,5-1.9,3.1,1.1l.2,1c-.8-7.4,11.6-4.7,7.9,2,3.6,5.7,4.3,9-2,12.5,1.4,7.4-.1,11.4-4.8,12-.2.4-.8,1.5-1.4,1.3-.9-.2-2.2-1.4-3.6-2.9l-1.4,3.9c-.9,2.4-3.9,0-5.1.3l-13.6,4c-2.5.7-5.9-3.9-4.8-5.1l5.4-6.2c-2.1-1-5-1.6-6.2-5.8,2.8.4,5.8.3,5.9-.2,2-4.4,1.5-6.9-1.8-8.7-2.1,2.6-2.4,4.7-3.8,7.8-5.1-.7-7.3-4.2-7.9-9.3-2.8,4-8,6.5-12.5,4.8,2.3-2,4.6-1.7,6.4-5.8-2.3-.9-7.4,1-9,3.9-3.1,5.6,5.4,8.3,7.4,9.7s.2,2.9-.6,3.1-2.2-.7-4,.8c-2.6-1.2-5.8,1.7-1.2,3.4l-7.3,8.9c6,3.6,8.5,8.1,9.3,14.4.8,5.9-3.8,10.1-9.8,14.4-3.9-4-4.3-10.4-8.1-9.8s-2.5,2.2-2,3.5,2.2-.3,5,.8c-.5,2.2-4,3.5-4.7,4.5s-2.5-.5-3.9-1c-.9,1.5-2.1,2-2.6,1.8-.7-.2-1.2-2-1-3l-3.8-3c-.6-.5,1.7-2.8,2.6-3.5-.9-2.6-3.8-3.4-8.1-4.6l12.7-8.8c-2.8-3.3-2.9-6.7-1.8-10.2s-2.8-6.7-3.2-9.6l-3.8-24.7c3.7-.7,7.4.4,11.7-2.7-2.8-5.7-12.2,1.8-14.6-3.2s.5-3.3,2.3-3.4l5.9-.3c2,0,3.8-3.6,3.9-6.5,1.2.3,1.8,1.2,2.4,1.6l.9-.8c4.3-.7,7.6-2.8,12.1-7.3l5.8,16.5c4.3-4.2,2.3-8.2,1.1-11.7,2.6-1.1,4.3-2.4,7.3-2-2.5,6.1-1.9,14,2.5,17.5,2-2.2.9-4.7,0-5.7-1.3-1.4,1-4.3,3-2s3.3,5.4,6.8,5l2-.9c.6-3.3,3.5-4.6,6.6-4.9Z"/>
    <path class="st15" d="M425.9,281.6c-.2,3.1,1.9,8.4-1.1,11.9l-1,4.3c.7,12.5-1,16.2-5.2,11-.6-1.3-3.7-2.4-5-1.9,1.3-4.3,1.4-8.1.9-13.2s3.8-3.5,6.6-4.1c-1.3-1.2-3.7-2.7-4-4.2s2.2-2.8,3.2-3c1-2.3,2.8-2.6,5.4-.7Z"/>
    <path class="st48" d="M306.2,462.8c1.3,1.5,2.8,6.1,2.1,8s-5,3.3-9.1,5.3c5,3.9,9.6,7.2,13,13.1l14-1.4c2.1,5.4,9.2,9.1,14.3,4.4-1.3-2.4-3.3-4.5-3.2-8.4,3,.8,3.8,2.7,5.5,4.7l16.1.3c1.9,0,3.6,3,3.3,4.4s-1.2,2.6-2.5,2.5-2.2-.7-3.9.2c-.6,1.3-2,4.5-3.3,4.2l-6.1-1.3c1.5,4.1,4.2,7.5,7.6,9.9-3.4,3-5.9,4-9.1,3.4-1.2.1-1.6,3.2,0,4.8-2.7-.2-4.4-1.4-5.6-3.4s-1.6-4.5,0-5.6c.6,1,1.4,3.3,1.9,3.6s3.3-2.2,1.6-4.4l-7-5.9c-2.4-2-4.8,1.3-4,3s1.9,3.2,5.2,4.8c-2.2.5-4.4.3-6.5,2l5.4,2.2c1.1.4-.7,1.8-3.4,3.8,4.3.9,7.1,1.6,7.8,6.3-8.9-1.1-9.1-8.2-16.9-7.6l-1.9.2c-2.7-1.2-4.5-3.5-5.4-6.7-1.3-.7-2.6.3-2.7,1.7s-.4,2.4.4,5.5c-6.5-.2-7,5.2-17.7,7.5s-2.9,3-2.5,5.1c-.7,1.4-2.1,3-3,2.5-5.3-2.7-17.3-9.2-12.8-14.9-1.6.5-2.5-1.4-2.6-5.6,6.2-2.1,9.3-3.2,9.3-3.2,11-8.5-.8-20.6-9.9-9.3,3.1,1.7,2.4,3-1.1,2.4-2.4,3.5-3.6,7.1,1.1,9.1s2.8,5.1-1.8,5.9l1.9,1.3c4,2.9,5,8.5,3.1,16.9l4.5,1.9c2.2-1.7,4.1.4,5.3,2.6,1.9.4,3.7,2.8,2.7,3.6-5.1,4.2-3.9-2.3,0-2.6,1,0,12.3,12.1,8.5,14.2l3.1,2c9.5.6,11.8,3,6.9,11.6-8.9,10.5-19,15.7-30.3,15.4-2.6,8-10.7,11-8.3,1.1-1.8-4.1-3-7.9-3.6-11.5-1.6,5.6-6.4,3.1-7.8-1.7-.6-7.8-10.1-6.8-16-4.2-3.4-7.5-2.9-13.2,1.6-17-1.1-3.3-1.2-5.6,2.4-7-6.5,1-8.6-1.3-6.3-6.7-3.7.9-7.7.2-12.1-2.1-17,2.5-17.5-12.3-.6-10l3.4-5.2c7.3.6,10.5-3.6,9.5-12.6l7.5-6c-.3-.8-.5-1.7-.5-2.5s9-9.2,11.2-10c-1.9-.2-2.1-.9-.6-2.1-3.5-.1-7-2.3-2.8-3.9,0-2-.9-4.9,2.7-6.4.9.5,1.9,2.8,1.9,3.9s1.5,1.3,1.8.4c2.1-6.1,7.6-2.3,14.7-8l-1-1.5c-3.1.5-7.6,1.7-10.3-1.6,4.1-4.9,8.2-.7,10.9,1.3.6,0,1,0,1.5,0,2.4.4,4.9.6,6.1-2.4-4.2-1.4-6.1-5.6-7.3-9.1-5.3-.3-2.7-3.9.8-3.9,7.4-.5,14.5,4.2,17.5,10.3,2-3.6,4.3-4.8,4.4-6.2s-.3-3.4-1.7-5.4c-.8-2.6,2.1-3.3,2.9-.8.6,5.4,3.7,8.1,6.2,11.1Z"/>
    <path class="st86" d="M321.3,515.5c0,3,.5,7.4-4.7,9.1,1.2-5.6,0-10.6-.6-15.7l2.8,1.5c1.1.6,2.7-1,2.1-2.3-3.3.5-3.3-3.3-.2-2.8.7-3.3,3-3.2,4.6-2.3,2.7,1.4.3,4.9,2.2,9.5-2.1-.3-3.5-.4-4.4,0-1.4.5-1.7,2.1-1.7,3.2Z"/>
    <path class="st38" d="M277.5,516.2l-3.2.7c-.7,0-2.1.6-3.6-.7s-.2-3.1,1.7-1.9,2.7,0,2.4-2.1c-5.2-.9-7.4-.5-7.5-5.4,0-4.3.6-6.6,5.8-6.2.9-2.1,5.3-2.5,5.9,0,2.3,10.2-2.9,1.3-4.8-2.4,0-1.4,0-3.2.6-4.3.9-1.7,3.7-.7,4.8-.9,7.1-1.2,9.1,1.8,14,5.1l10.9,7.2c-5.1-.3-8.6,0-14.3-3.5,1,4.2,1.2,5.7-2.8,8.2-2.7,1.7-3.5,1.5-7,.8s-4.2,5.1-2.9,5.4Z"/>
    <path class="st1" d="M273.2,500.6c0-.9.8-1.8,1.1-2.4,9.5-5,14.5-2.7,13.4-.8s-3.6,1.4-4.9,1.5l-6.4,11.7c-3.3-3.2,0-4.9.2-6.1.4-2-1.9-3.5-3.4-4Z"/>
    <path class="st1" d="M277.1,556.1c.8-1.6,2.6-1.1,3-.6.9,1,1,2.4,1,3.4.1,2.1-1.3,1.4-2,1.2-1.2-.4-3.1-1.9-2.1-3.9Z"/>
    <path class="st0" d="M287.3,538.3c-2,0-4.2-.7-5.3-2.6-.4-.8-.4-3.9,2.2-3.6,1.8.2,3.1,4.5,3.1,6.2Z"/>
    <path class="st25" d="M553.5,402.5c-1.3-.2-2.4-1.2-5.2.5l3.4,4.7,1.2-.7c-.7-.9-.2-2.4.6-2.6,3-.8,8.4,8.9,5.4,11.6-4.9,4.5-4.4,7.8-2.1,13.7.7,1.9-1.6,5.6,2,7.1s5.4,1.6,7.5-2c.6-.2,2,.7,2.4,1.4s-.6,2.3-.5,3.9v4.4c.2,1.1-2.2,1.4-3,1.4l-21.2-1.2c-4.5-.3-8.1.3-11.4-4.5-.8,4.8,2.5,8.3,7.1,10l-12.8,6.7,10.9,4c1.3-3.8,3.3-5.9,6.4-5.5.2,4.8-5.5,8.6-9.7,6.8-6.2-2.8-10,.5-15.4.9s-7.6-3.6-10.4.9c-1.2-.2-1.7-3.2-1-4s1.8-.9,4.6.2c-2.5-3.9-1.6-7.8-2.1-13.4-5.5-.2-9.9-2.9-14.5-4.6-3.1,1.9-6.3,10.6-11,10-2.4-1-1-4,.8-3.6.9.2,3.6-.4,5.1-1.6-1.7-2.6-4.6-5.2-4.9-8.4s1.9-6.1,4.9-9.5c-4.2.9-6.1.8-8.8-1.6-2.4-2.1-4.1-3.6-3.5-9-3.7,3.2-5.1,4.6-7.5,4.7s-4.5-1.7-5.5-3.6c-4.4,7.5-10.6,11.2-17.4,14.4-2.4-8-9.2-10.7-7.1-14,.3-.5.5-1.2.4-1.6-.8-2.2-.2-6.1,2.9-6.8s4.9-.9,8-3.8c1.1,4,3.3,6.9,6.1,10.4,3.4-4.1-6.8-9.8-2.4-9.7s1.6.5,3.9,1.5c-.2-1.2-.8-3.3-1.4-4.3-.8-1.4-13.9,2.4-10-1s1.9-2.3,4.1-1.2,1.9.5,2.6.3,1.5-1.7,1.1-1.9c-.8-.3-3.2-1.6-2.7-3.1,4.6-.6,9.6.2,12.7-4.3-1.5-1.9-4.1-3.3-6.7-4.5.5-1.1,1.9-2.8,1.9-3.5s-.8-1.9-2.6-3c1-1.9-.8-2.9-1.4-2.5l-3.1,2.1c-.5.3,1.5,2.2,2.8,3.7-4.3,4.2-9.6-6.5-11.5-.6-2-1.7-3.5-14.5,3.9-15.9-1.3-1.1-2.2-1.4-2.8-1.5-2.2-.5-1-1.8-.5-2.3s3.2-2,4-1.3c3.2,5.4,7.1,10.4,15.1,9.2l-10-6.9,7.3-5.2c-4.1-4.5-4.5-8.5-5.3-14.3-.2-1.4-4.4-1.2-5,.4-1.2,3.5,2.1,5-2.7,8.6-1.1.9-3.9.5-4.7-1.2s.2-3.5,1.4-5.1c-3.7,0-5.5,1.3-7.5,3.2-3.1-5.8-6.8-9.7-11.6-12.8l.5-39.2c0-4.4,7.7-3.7,9.9-2.4,3.1-4.9-5.3-6.5-1.5-10.6s1.7-.8,2.3.3l1.5,2.9c1.2,2.4,2.1,4.8,3.6,5.7,2.3,1.4,3.7-.4,4.7-1.5,3.8-4.6-3.6-11.7,4.5-11.4-.5,2-1.4,4.3-1,5.9s2.5,3.1,4.2,4.8c2,2-9.7,8.7-4.4,13.9,2.3,2.3,5.8,3.4,9.4.3-1.1,0-3.9-2.3-3.1-3l4-3.8-.8-4.5c-.2-1,1.5-1.2,2.1-.3s2.1,1.4,3.5.9l-3.7-7.3c3.3,1.5,5.6,2.9,8.1,2.1s3.1-6,6-7.8,3.2.3,3.4,1.1c1.7,6.3,3.9,7.6,9.4,7.5s5.5-2.1,8.5-8c4.8,4.9,3.5,10.8,1.5,14.4l-1.4,1.2c-1.9,1.6-3.7,2.4-7.4,3.3,4,4,5.2,8.9,8.2,13.9l3,1.3c.3.1-1.1,1.9-1.6,1.9s-1.2,0-2.6-.8c-2.7,1-1.4,5.3-.3,7.1s2.1,1.8,4.9.9c.8,1.7,3,2.4,3.6,1.7s2.1-2.9,3.7-1.8c1.5,1.8.2,6.3,4.5,7.5-.5-4.9-1.9-8.5,1.4-12.5-.4,5.2,1.8,7.7,2.5,11.1,1.8,9.7-.6,19.8-4.5,28.7l7.9,3.2c-3.6,2.7-4.6,5.1-2.3,7.5,1.2,1.2,3.1,3.5,5.1,1.1-.4-.9-1.9-4.1-1.2-4.8s3.1-.7,3.6.1.6,2.4,1.9,3.4c2.3,1.8,5-2.2,3.6-5.1s-2.1-2.6-4.6-4.4c5.3-1.8,7.3,3.8,9.6,8.1,8.3-.7,3.3-15.5,9.4-12.8,2.6,1.2-.2,1.3-.7,5.8,4.8,2.4,10.7,7.4,11.9,12.5-.4,1.9-2.2,5.3-1,7.8-1.8-.4-4.9-1.6-6.3-1.3s-2.4,3.3,1,3.6c3.3-2,4.5,2.6.6,1.9-2.7.1-3.4,1.3-4.3,2.7s.4,3.3,1.7,2.9,4.2-2.1,4.3-.4l.5,5.9Z"/>
    <path class="st30" d="M424.8,193.7c-.3.8-.3,1.6-.3,2.3l-6,12.4c-3.3-3.9-7.9.9-9.2-.5l-4.4-4.3c-.9-.9-4.4,6-6.6,4.6s-2-1.7-1.6-2.1l2.1-2.3c2.8-2.9,3.5-5.9,6.9-8.9-1-.8-3.4-2.4-4.7-2.6s-2.7,3.7-2.7,5c0,2.3-2.7,2.7-4.2,2.1s-1-.9-.6-1.9,1.9-1.7,1.9-2.3c0-3.5-1.3-8.5-3.1-11.4-2,0-5,0-6.7-2.4s-1.1-2.2.1-3.9c1.4.7,2.8.9,3.6.5,1.6-.9.3-3.6.2-4.7-.2-3.3,3.1-3.3,4.8-2.5s5.9-1.1,5.6,2.4c-2.5.7-3.4,1.6-4.3,2.1s-.5,1.5.2,1.6c4.9.7,7.2-4.6,11.2-4.9s6.9.3,7.4,3.7-.7,9.4,1.4,13.9l4.1-1.4c3.5-1.2-.6,5.2,1.8,6.6s2.3-.9,3-1.2Z"/>
    <path class="st82" d="M565.1,464.4c-.6-2.2-1.4-3.6-1.2-5.1.2-2.6,2.1-3.9,3.4-4.5,1.4,2.5,2.4,5,6.5,7.3,1.3-5.3,5.6-8.6,9.1-8.3,2.9.2,8.4,5.2,7.9,8.3-5.6,9-18.9,9.7-25.6,2.4Z"/>
    <path class="st65" d="M328.9,276.5c-.8,3.8,1.4,7.8-.7,11.6-1.5-2.2-1.4-3.8-2-5.6s-1.6-3-4.3-.6l4.6,11.5c1.3,3.2-2.3,3.3-3.7,3.1s-4.7-.2-4.2-2.4c.7-3.6-1.8-10.5-5-9.4s-2.6.8-4.3.2-1.8,5.2-.1,4.7l5.1-1.3c-.4,4.8-4.9,4.4-7.5,5.5,0-2.4.3-5.6-.5-8s-2.4-2.7-1.8-4.6,2-3.3,4.7-3.5c.3-2.7-.6-5.3-1.3-7.9,4.4-1.7,7-.4,7.9,2.3l2.4,7.2c.3-1.3,1.8-3.5,2.9-3.1s1.5,2.3,3.1,1.3l3.2-2c.4-.2,1.3.5,1.5,1.1Z"/>
    <path class="st93" d="M324.8,338.8c-.7-6.1-6.6-7.8-11-10.8l10.4-8.4.8,11.3c.1,2,2.2,3.2,2.4,5s-.9,2.4-2.6,2.9Z"/>
    <path class="st75" d="M231.1,483.3c1,.6,2.1,1.5,3.1,1.9.5,1.9,1,4.1.3,6.1-1.8,5.7-13.5-1.9-14.1,7.8l8.1,1.2c-.7,2.1-1.4,4.3-2.7,4.8s-4.5.7-5.9.6c-2.6-.3-3.7.4-3.3,2.1-1.3,1.8-1.8,4.1-2.4,7l-9.7.3c4.9-1.9,4.6-6.2,2.6-13.1,1.9.8,4.2,1.5,5.3.9,2.1-1.1,1.3-3.3.4-4.3s-1.8-2.5-5.8-2.8c2.3-3.3,6.4-3.3,11.3-1.1,1.7.8,1.4-2.9-.2-2.6s-1.3-.1-2.2-.6c.5-2.3,1.4-5,3.4-6.5s7.3.4,11.6-1.8Z"/>
    <path class="st87" d="M379.5,153c1.7,3.2,3.9,7.3,7.7,8.8-4.6,9.4-5.2-1.8-16.4-5.3l.7-5.5,7.9,2Z"/>
    <path class="st10" d="M234.6,572.6c-2.9,3.6-9.2,4.1-12.6,3.4-1.4-.3-3.7,1.3-4.5.7s-1.4-2.5-2.8-4.3-6.6-2.1-8.8-7.5c4.1-1.3,8.8,0,12.1,2.5,2.7-4,5.8-4.1,8.9-6.9,1.5,2.3,2.3,5.7,7.2,7.8.9-4.4-2-7-4.4-10.7-2-3.2,7.2-7.2,8-4l2.2,8.6c-1.2,3.2-3.6,8.2-5.4,10.5Z"/>
    <path class="st38" d="M247.9,499.5c-.5.8-1.1,2.4-.7,3.4s.8,1.4,2.6,1.8c-.4,1.1-1.5,2.3-2.7,2.1l-5-.8c2.3,6.5,1,11.5-3,16.9,1.6,1.2,2.9,2.7,2.3,3.5-1.2,1.5-4.1,1.9-4.5.9s-1.3-3.2-.5-5.4-2.9-2.2-3.8-.4-.5,2.7-.3,3.8,1.1.6,3.4,2.6l-15-1c-1,0-2.6,2.1-2.4,2.7.7,2.4,8.7-3.1,18.2,3.6,6-2.7,13.5-5.3,18.2,3.9-4.6-.5-7.5-.6-12.5.2.9,3.2,3.3,3.6,4.3,5.1-1.8-.3-3.5-.2-5.1.9-1.5,1.1-2.1,3.2-.9,6.9-9.1-6-14.1,4.9-16.5,3.5s-3.4-.9-3.4-1.7,1.3-2.4,2.8-3.7c-2-1.6-3.7-2-7.7-3.2l4.6-4.9-9.8-4.1,2.2,10.4c-3.6,2.7-1.9-.3-4.7-5.4-1.3,2.9-3.5,5.1-6.4,6l-.3-1.1c-1.9-3.7-4-6.9-6.2-9.8-2.2-5.9-2.5-12-3.4-18.2s1.3-6.9,2-10.2c6.9-3,8.5,8.8,1.8,9.4,2.8,6.3,9.1,4.6,12.4.7,4.1-.4,7.4-2.1,9.9-5,2.2-4.5,7.3-6.2,15.5-5.1,2.4-6.6,8.8-15,14.6-8.1Z"/>
    <path class="st2" d="M201.2,545.8c-4.5-1.9-4.8-6.1-6.2-9.8,0-2.2,2.5-2.5,2.5-.6,2,3.9,3,7.2,3.7,10.4Z"/>
    <path class="st67" d="M258.6,487c.8,5.7-5.6,10.3-10.7,12.5-2.5,1.1-6.3.8-8.4,3.9s-2.4,4.9-1.8,8.2l-17.4-1c3.8,7.8-8.9,4.2-10.7,11.7,3.4.2,3.6,3.6.4,4.1-1.5-.8-4.8-4.1-7-2.9-2.1,1.3-3,4.1-7.8,5.1v-11.6c2.2.4,3.4,2,5.4,4,.4-3.6,1.8-5.8,4-5.9,3.9-3.3,7.9-5.7,12.1-7.3-1.7-2.6.7-3.4,3.3-2.1,1.6-2.7.9-4.3-2-4.9l-.4-5.6c1.6,0,3.2-1.5,4.9-4.6,5.7.5,9.7-1.4,11.8-5.5l7,2.4,17.3-.6Z"/>
    <path class="st64" d="M225.5,534.4c0,1.6-2.7,4-4.3,3l-5.1-3c3.4-.8,4.7-1,9.5,0Z"/>
    <path class="st35" d="M328.8,207.3c3.8-2.5,8.9,1.6,4.4,5.6.8,2-.7,3.2-4.5,3.5-3.6,9.9-14.1,12.8-22.4,7.5-.3,1.7-1,1.7-1.8.2-2.8-.8-4-4.7-4.1-7.7,2-5.4,6.2-10.4,9.9-14.9l11.2-7.1c6.3,3,1,12.3,3.1,12.5l4.2.4Z"/>
    <path class="st14" d="M304.5,224c.8,1.9,0,4-2,4.1l-3.6-7.8,1.5-4c2.9,1.7,4,4.7,4.1,7.7Z"/>
    <path class="st19" d="M333.2,212.9c-.4,1.3,3.1,2,5.8,1.9s.8,4.8-2.2,4.9-3.4-.9-6.4-2.6c-1.2-.3,0,4.5-1,5.4l-9.6,9-12.4-2.8c-1.3-.2-1.4-3.5-1-4.9,2.7-.3,5-1.3,8-3,7.5,7.3,8.1-7,18.9-7.9Z"/>
    <path class="st59" d="M317.3,215.9c-2-2.2-4.6-4.2-9.6-5.7,2.2-4.7,5.6-7.5,10.1-10.7-.5,4.3-2,8.6-.1,11,3.6.2,4.2,2.5-.4,5.4Z"/>
    <path class="st14" d="M302.6,229.7c.2,4,2.3,7.4,5.3,10.5-2.1,1.3-3.5,2.8-4.5,4.3s.1,2.9,1.5,3.8c-1.3,1.5-2.9,2.9-4.5,4-.2,1.9-.9,2.1-2,.5l-3.4-.3,1.5-9.5,4.5,6.6c3.1-5.9-8.1-6.1-5.3-16.2.9-3,3.3-4.8,6.8-3.6Z"/>
    <path class="st36" d="M321.2,265.4c-6.2.9-11.8,1.1-19,4.2-.5-2.1-.7-3.4-1.7-3.7-1.5-.4-4.2-.3-5.3-.3s-1.3,0-1.6.1c0-2.2-.4-5.3,0-7.2l1.4-6.1c.9-4.9,2.4-4.6,3.4.3.5,3,4.8,1.7,6.2.3s-3.2,5.4-4.2-.8l-.7-4.1c1.7.6,3.5.6,5.2.1,1.9-1.4,4.2-2.3,7-2.4-.8-7.1,1.1-11.2,5.8-12.2,4-4.1,5.6-1.1,7.7,3.2,18,.7,18.5,15.5,1.2,12.7,3.9,5.7,2,16.5-5.4,16Z"/>
    <path class="st74" d="M306.3,223.8c3.6,1.7,7.5,2.9,11.8,3.5l1.6,4.2c-.6.6-1,1.4-1.9,2.1l-2.6,11c5.9,3.5-7,6.5-6.8,6.6l-3.4-2.9c-3.4,2.3-4.4-5.5-3.2-9.8-2.5-3.4-2.6-6,.9-8.8v-1.6c-.2-1.7.1-3.9,1.9-4.1l1.8-.2Z"/>
    <path class="st74" d="M298.4,252.7c.5,0,1.6-.2,2-.5l5.8.4c-2.8,4-4.8,7.3-8.6,10-2.3-4.8-.4-7.5.7-10Z"/>
    <path class="st74" d="M311,261.4c-.8-1.6-.9-3.2-3.6-5.8,2.2-2.5,4.2-.2,5.6.6s1.2,4.2-2,5.2Z"/>
    <path class="st73" d="M466.1,509.4l-4-5.7c1.6-.4,5.5-1.8,8,.4,2.2,1.9-1.5,4.5-4.1,5.3Z"/>
    <path class="st73" d="M565,445.9c-1.1,3,.8,6.3,2.2,8.9,1.8,2.8,0,7.6-2.1,9.6l2.6,9.1c-4.3,3.4-8,.6-11.2-8.2l-5.3.9c.6,2.1-1.8,6.1-3.4,7.9s5.5-18.6,9.8.7c8.1,6.4,10.5,14,0,19.5,1.5,3.1,2.3,5.3-1.1,7.6.6,2.7-.1,5.7-2.3,9.1.5,14.3-3.4,19.3-11.7,14.9-12.4-10.6-27.1,8.8-32.8,20.3-2.4,2.5-5,1.3-7.4-1-1.1,1.9-4.2,5.1-6.4,3.7l-1.6.8c-6.2-1.7-8.1,1-5.6,8.1-3.4-6.5,5.1-11.2,5.2-3.4-1.2,4-1.5,7.3.2,10.7-5.4.7-8-1.1-10.6-5-.4,3.4-.4,5.7-1.4,7.3-3.7-1.7-6.6-2.1-9.1-4.1-1.7-1.4.5-6.2.4-8.5-3.5-2.8-8.7-3.6-12-7.8l6.1-4.9c2.2-1.7,1-5,.6-8.5s4.4-4.9,7.8-2.2c1.8-3.4-2.1-6.6-3.6-8.5-.5-6.4,6.9-9.5,12.8-9.6,2.1,0,4.9-5.4,10-1l-6.4,9.4c7.2,3.3,16.2.2,16.2.3l-2-3.7c-.5-.9-5,2.2-7.1,1.7-4.6-.9,3.6-4.2,2.4-9.6l3.7.6c.9.1,2.5-1.2,2.8-2.3s-2.9-1.7-3.3-2.5l-5.8-11.1c-1.6-3.1,0-8.8-5.1-9.6-.9,1.6-2.2,4.6-3.5,5s-4.8.2-6.1-1l5.2-5.4c-3.4-.2-6.8.1-10,1.1-.4.1-.8.5-1,1,.3,1.9,1.7,3.3,5,5.1l-18.2,12.7-10.2,9.3c2.2,2.6,4.1,2.9,6.5,3.7,2.3-3.1,4.5-6.4,7.7-7.4l.8,3.7c.6,2.6-8.8,4.2-5.1,15.6-6.1-1-3.1-6.6-3.7-8.3-3.4-2.8-3.8,1.3-4.3,2.4-1,2.3,1,3.6,3.5,6.3-4.6.2-7.2-1.6-10.6-4.5,3-1.3,5.7-5.1,4.5-6.6-3.9-5.1-9.7-5.8-13.8-1.3-2-1.8-3.5-2.9-5.2-3.7-1.4-.9-2-2.7-1.7-5.4l-4.6-12c-1.8-4.6-1.1-9,2.4-11.9,1.2-1,2.5-2.1,3-3.9s-.1-3.1-1.2-4.3c.3-7.4-.9-14.8-3.4-22-4.4-3.3-5.2-7.5-1.6-11.9-4.3-1.2-5.5-5.2-3.5-12.1-2-11.8-1.2-22.7,2.5-32.6,1.9-2.4,1.6-5.5-1.1-9.2,1.6-8.8,16.5-7,10,2.2,1.2-1.9,3.1-1.8,5.8,0,6.6,7.2,9.3,6.4,8-2.5-2.4,2.6-3.4,1.7-1.8-1.6-1.6-5,1.3-6.5,5.9-4.1,5.2-9,13.3-2.2,13.3,6.2,8.4,6.3,3.4,13.1-5.6,13.9,8.3,7.8,1.2,28.1-8.1,12-3.7-.1-6.9,1.2-9.6,4.2l1.7,1.5c-1.1-2.4,2.7-6.3,3.9-4.8,1.7,2.5,1.6,6.9,0,7.5s-3.4-1.2-4.8-2l-1.1-.6c3.8,1.5,6.9,4.4,9.5,8.7l6.1-4.1c4.9-7,9.6-8.6,14.2-4.9,2.8-2,5.6-3,8.5-3.1,2.1,6.7,5.5,9.8,10.3,9.4,3.9,2.2,3.9,6.2,0,12-.2,3.5,2.3,4,7.8,1.4l15.4,5.8c.5,12.2,6.3,21.7,14.2,7.9,5-1,5.7-4,2.1-9.1.5-5.7,4.1-6.7,11-2.8l23,1.3,2.3,3.9Z"/>
    <path class="st83" d="M567.7,473.5c1,3.6-.4,5.7-1,9.7l4.7,9.3c.4.8.6,2.6,1.5,3s2.5-.2,5-1l-2.9,5.1c-1.5,2.6,6.5,5.2,7.5,9s1.8,1,2-.3l.7-4.1c.7.9,1.6,2,2.7,2.4s3.1-.3,4.9-2.6l4.7,13.2-15.5-1c-4.3-.3-4.5-6.3-5.3-9.5-1.5-1.2-3.8,1-3.3,2.1s.5,3.7,1.5,4.5l-3.3,4.3c-1-9.8-12.6-9.2-15-15.4l-4-10.5c3.4.2,9.8-3.5,8.7-7.8l-8.4-8.3c.4-1.3,1.4-3.7,1.2-4.5-.3-1.3-2.5-1.5-3.6-.1s-1.1,1.3-.6,3.4-1.1,2.1-2.2,2.3-2.8-1.5-2.2-2.2c3.8-4.1,2.7-9.2-2.3-14.2,5.3-2.2,6.6,2.2,8.6,2.4,3,.2,5.4-2.4,9.3-4.3-1.5,6.7,1.2,12.6,6.7,15.1Z"/>
    <path class="st23" d="M424.2,396.8c-.1,5.6-.9,11.2-.5,17.6l1.5,27.1c-1.5,1.1-2.5,2.4-3.3,3.9l-7.5-9c6.2-4.7,4.5-8.2,4.3-14.1l-.8-16c-.1-1.5.1-4.3,2.8-4.5-2.9-3.3-4.2-11.6,2.5-10.7,1.4,1.9,1.2,3.4,1.1,5.6Z"/>
    <path class="st42" d="M430.2,475.5c-.5-.1-1.3-1-1.5-1.6l-1.8-5.9c-2.6-1.3-3.3-4.4-2-9.4,1.4-1.2,1.2-3.9,1.8-5.1,6.2,4.7,10.1,19.3,3.4,22Z"/>
    <path class="st25" d="M446.9,387.4c1.9,1.6,3.9,2.8,5.3,5.4,1.9-2.1,3.7-2.8,4.9-2.3s4.7,1.3,3.9,5.2c-5.2-3-6.9-1.1-10.7.2l-12,4.3c1.7-2.4,3.3-3.8,3.2-6.6-3.5-1.3-6.5-2-8.4-3.8.5-3.5,2.7-4.4,5-3.3s5,2.6,6.3,6.7c1.8-1.6,1.8-4,2.6-5.9Z"/>
    <path class="st20" d="M511,525c-2.8.9-3.8-.8-3.1-2.7s.9-3.7,3.1-4.1c.7,2.7,3.8,4.4,4.9,3.8,1.8-.9,2.7-4.4,2.3-8.6l8.2,6.7-15.4,4.9Z"/>
    <path class="st25" d="M469.1,433.9c-.4,1.1-4.4,0-4.4-2.3,1.5-3.2,7.5-7.8,11-5.8-.2,3.7-3.3,3.4-4.6,3.4s-2.8,1.5-2,4.7Z"/>
    <path class="st37" d="M448.9,615.1c-1.9-5.9-7.1-7.9-11.5-11.6,2.3-.8,5.6-3,5.3-5.5,2.8-.6,4.7-.2,6.1,2.1,2.8,4.4-1.9,5.5,0,15.1Z"/>
    <path class="st86" d="M413.7,306.8c2.2-5.8,6.5-4.1,5,1.9,7.7-.8,4.8,16.5-2,15.1,2,2.4,2.1,4.2-.5,5.4,3.5,4.2,6.4,8.6,8.6,13.1,1.9,5.1,1.7,8.8-.5,11.1,5.2,2.1,4,5.4-1.3,5.7,2.6,6.1-1.5,11.5-7.7,12.2,4.8,2.3,6,11.5.4,11.8l3.1,2.5c-.8,5.6-.2,11,1.8,16.2,1.2,2.9.7,4.1-2.8,4.5-1.7,5.9-2.1,12.5-1.3,19.7l-3.7,1.5c.6,6.6,2.4,12.6,5.2,18.1-3.2,2.9-2.2,7.7,2.9,14.1-1.9,6.3.7,11,7.7,14.1,1.4-.5,1.9,0,1.5,1.6,8.4-1.5,5.5,12.3-1.9,8.2.1-3.9-3-5.9-5.3-9-.5,3.4-.3,6.9-1.4,8.1s-4.3-.4-5.2-1.2c-.3.2-.5.4-.7.7-1.2,2.6-3.3,4.4-6.3,6.1,2.6,1.8,5.8,3.7,6.2,5.3.7,2.8-8.5,8.9-14.5,4.8s-.3-10.8-5.5-11.3c-1.5-.1-2.1,2-3.9,3.8s2.8,2.2,5,2.2c.4,2-4.9,6-6.3,3.7-2.3-3.6-4.5-6.2-9.1-3.9,9.5,8.4-9.7,14.7-3.7,20.8,1.9,2,6.4-2.9,5.6-6.7l16.1,16.6-7.4,1.5c2.6,1.4,4.9,3.1,6,6.3-4.4-1.7-6.9-4.6-10.3-7.8l3.7-4.8c-1.3-3.6-5.6-3.7-7.9-1.4-3.5,3.5.6,9.1-1.1,10.7s-4.3,1.2-7.4-1.1c-.9,2.7,1.2,9.3,4.4,10,3.1-1.1,6.2-4.1,9.3-2.4l-5.5,5.8c-1.7,1.8-5.1,1-8-1.4-2,3.1-.5,5.5.3,9.8-8.2-10.6-22-3.4-27.4-18l-9.2,5.3c.3-3.4.1-5.7-1.7-6.8-6.7-4-11.9,2.1-14,1.7-4.8-.9,5.3-4.6,5.1-9.4s-3.2-5.1-5.3-6.5c1.2-1.1,3.1-2.1,5.8-2.8-1-6.2-.3-11.3,2.1-15.3-5.3-4.7-12-6.3-20.3-5l-13.3-13.8c-1.3-4,1.1-7,7.1-8.9-.8-2.8-.3-5,1.7-6.7l2.1-.3c1.4-4.7,6.8,6.5,6.5,6-4.1-5-7.4-10.6,1.2-9.2,3.7-1.8,6.5-4.2,8.5-7.2l9.2-7-1.8-3.1c-.5-.8,1.5-2.3,1.5-3.4.2-4.2-2.2-4-5.4-3.5s-3.1,2.2-4.1,4.7c-1.3.3-4.8-2.2-4.3-2.7l4.3-4.5-2.4-18.7c-6.2,1.7-8.4,0-12.6-2.8l-11.5-1.4c.8-2.7,2.5-4,5.3-5.8-2.5-4.1-7.4-5.6-12.2-3.7-.7-2.8.3-4.4-.4-5.1s-3.8-2.4-4.5-.9c1.4,1.8,1.8,2.9,1.7,3.6s-1.9,1.5-2.5,1.1c-2.9-1.8,0-7.6-3.9-9.9-1.6,3.7-7.8,4.1-10,1.6s-2.3-8.2-7.4-7.6l-11.6,1.3c-2.7-2.1-1.2-14,1.7-15.9,2.3-1.6,4.8-1.2,7.1,1.2.8-1.8,4.3-2.9,4.8-1.8.4,2.8,1.4,5.3,2.8,5.8,3.7,1.4,7.2-2.5,11,.4s1.7,2.5,0,3.9-2.3,1.3-3.2,3.7l14.6-1.9c1.2,1,3.4,3.3,4.6,2.9s3.1-2.8,4.3-4.6c.7-1.1,4.4,1.4,4.2,2.9s-1.4,2.7-.7,5.4c.6.9,3.9-1.4,3.5-3.8,3.5,2.4,5,1.8,10.4-1.6-3.9-3.1-7.9-6.9-11.3-11.7,2.2-2.7,3.8-5.1,6.2-6.1.7.4,3.2,3.1,4,2.4,7.3-5.6,9.1,4.9,13.6-.6,1.3-1.6-2.2-5.9-4-6.7,1.9-3.3,6-3.4,8.2-5l-2.7-6.6c-.6-1.6,1.7-3.7,3-4.9-1.6-3.3-.7-3,2.5-1.4,2.5.5,3.5-.2,2.8-2,5.8-9.7,8.4-12.4,15-.9,11.3-5.6,3.3-15.6-2.7-21.9,2.2-4.9,4-9.9,5.5-14.8l2.1-1.8c-9-10,1.9-22.7,12.1-15.3,4.5-.8,7.6,1.3,9.2,6.4,2.8-6.2,9.6-8.2,12.4-1.5s-2,17.1-5.1,20.8c0,0,7.8-2.1,23.4-6.4.8,1.2,1.5,2.4,2.3,3.7Z"/>
    <path class="st68" d="M253.6,368.6c-2.4,2.9,1.2,6.6,3.7,8.8-2.8,1.6-6.1,3.8-5.4,7.1.4,1.9,0,4.3-.1,6.3h-1.8s-2.3-9.2-2.3-9.2l2.4-12.9c.5-2.6,2.4-3.9,3.8-5.6l-.3,5.5Z"/>
    <path class="st80" d="M425.1,441.5c.2,3.8,3.9,7.6,1.6,11.9,1.9,3.4,2.7,6.1-1.8,5.1-1.1,4.9-.5,8,2,9.4,4.6-1,5.5,3.7,1.8,5.9-17.5-2.3-4.7-16.5-19.2-21.6l6.1-9.9c-4.9-5.6-7-11.3-6.8-19.4l5.5,1.5c0-2.4.9-6.6-1.5-7l-5.6-.8c2.4-1.5,5.2-1.7,8.3-2.6-1-2.5-1.2-4.2-.8-5.5s2.4-1.7,3.1-2.1c.9-.2,1.8-.2,2.5,0,1.5.5,2,28-.6,30.6,1.4,2.4,3.2,3.9,5.4,4.5Z"/>
    <path class="st53" d="M421.4,385.3c-3.2,4.9-4.5,3.1-5.7-2.1l1.2-4.6c.7-2.6-8.2-4.8-5.4-8.7s8.7-2.3,10.4-4.4,1.3-4.3,1-6.2c2.8,2.7,1.7,5.9,0,9.7-2.4,5.4-1.5,11.3-1.6,16.4Z"/>
    <path class="st89" d="M421.4,385.3c0,1.7.7,4.6,1.7,5.9-2.2,3.3.4,8.7-2.5,10.7-3.3-2.1-7.5-5.4-6.1-9.1,1.3-3.6,2.4-6.5,1.2-9.5l5.7,2.1Z"/>
    <path class="st25" d="M424.2,353.5l.5-11.1c2.3,3.7,2.7,8,3.9,13.1l-4.5-2Z"/>
    <path class="st48" d="M314.9,478.8c-.6-1.6-1.3-2.9-3.4-5.7,2.5-1.6,2.9.6,4.1,1.9s1.1,2.2,0,3.5l1.2,1,3.5,2.3c.7.5.1,1.9-.8,2.4-1.7.8-2.5.7-3.6,0-1.5-.9-1.4-2.7,0-3.8-.4-.5-.7-1-1-1.6Z"/>
    <path class="st86" d="M426.9,468c0,2-1.6,2.4-2.7.9-2.7-3.7-2-8,.7-10.3,2.5,2.6,1.1,6.6,2,9.4Z"/>
    <path class="st29" d="M220,505.7l-3.3,2.1c-1.2-.1-2.8-1.5-2.3-2.9s2.3-1.9,3.9-.6l1.7,1.5Z"/>
    <path class="st98" d="M460,216.3l-.7,3.1c-.6,2.6,11.8,5.9,9.7,17.9l3.5,1.5c.6.3,1.5,1.8,1.1,2.9s-2.5,1.1-4.8-.5c-.1,1.8,1.5,4.3,2.9,5.1,4.3,4.3,3.5,9-2.7,8.5,2.7,1.3,4.9,3.1,6.5,5.5-1.1,7.2,4.2,22.8,13.2,15.1,5.8,2.7,9.7,3.8,15.7,1,8-4.4,17.3-1.8,24.7,3.4,3.1.2,6.3,1.6,6.2,6-3.1-2-5.7-1.6-8.4,1.2-.4-.9-3.1-3.2-4-2.6-3.5,2.8-6.6,4.7-10.5,6.3,1.9,3.2,4.4,4,6.3,5.6,1.1.9,3-.6,4.5-1.9,1,1,2.5,2.2,3.4,2.1s2.5-1.7,3.9-2.6c2.5.9,1,5.5,0,7.4,11.2-4.3,4.2,8.8,15.1,15.5.7-2.8,0-4.7-1.7-9.5l12.2.7c-2.1,4.2,1.3,10.4,3.2,15-1.5,2.5-3.3,3.9-5.3,5.4,3.1,1.7,4.6,1.8,8.1,2.6-.4,2.2-2.2,3.2-3.4,3.4s-3.6-1.4-5.1-2.4c-2.2-1.3-4.2.3-4.3,2.2s1.5,2.4-1,5.7c-2.6-3.8-3.2-7.5-8.4-10.5.2,7.5,5.2,10.8,11.6,11.8,0,4.1.6,7.7-.8,11.8,3.5,1.2,6.1-2.9,9-5.6,2.2.5,1.4,4.2.8,5,1.1-1.5,7.9,6.7,12.6,3.2.5,0,1.3,0,1.8,0,4.1,2.2,7.2,5.1,2.6,8.4,5,1.2,5.1,3.8,4.4,8.3,6,5,5.8,14.1-2.6,14.6-.3,0-1.8.7-1.9,1.3s1.2,1.7,1.8,2.1c3.3,1.9,2.4,3.6,1.3,5.4s.1,4.7-3.4,3.5c-.2-1.7-1.8-3.5-2.9-3.6s-2.3,2.4-2.8,3.3c-3.5,3.5-7.7,2.6-11.3,3.5.2,4.1-2,4.2-6.6,0-12.2-3.3-11.9-10.2-5.1-19.8,10.9-1.7-2.4-17.2-8.2-6.2-5,1.1-9.8,1.7-14.2,1.7-6.9,6.7-13.2-1-12.6-9.3l-3.5-3.4c2.5-8.6,3.9-17.4,4.1-26.2-4.1,1-6-1-7.7-4.4-10.2.7-18.3-5.6-12.3-15.7l-6.2-11.6c.4-6.3,5-9.2,9.9-5.6l-.8-1c-2.1.2-4.4.4-6.4-.9,1.9-2,3.8-2.4,4.8-2.8,1.5-.6,3.1,1,2.6,2.7l1.2.9c-2.9-1.4-2.9-3-2-5.5-7.1,4.7-16.1,4.1-20.1-4.1-5,5-9.9,10.2-14.7,15.7,0,14.6-20,7.9-15.4-4.9-5.1-.6-10.4-.6-16,0l-.4,36.1-3.8,2.7c-.7,1.4-1.4,1.3-1.9-.3-5.2-1-5.6-10.2,0-11.3-1.4-2.9-1.5-6.5,0-9.4l-2.5-.6c.5-8.4,1.4-17,2.6-25.8-2.2-3.9-4.2-9,1.1-11.9-2.9-1.3-3.6-10-3.8-13.8-.3-4.1-1.4-25.9-1.1-28.1l3.7-2.5c-2.7-2.7-2.6-8.7,0-11.3-3.6-.4-3.4-2.2.7-5.5-1.3-1.6-2.6-4.2-3.9-7.7,2.1-5.6,3.1-11.2,3-16.7-.9-1-.8-1.8.3-2.3-2.6-4.8-4.5-9.6-5-16,2.8-3.6,4.5-8.2,5-13.9.7.2,2.1,3.6,2.9,3.3s1.9-3.2,4.1-2.1c-.4,3.8-1.3,7.6,1.5,10.1.4-2.1,2.5-3.3,3.1-2.8l3,2.6c.9.8-2.6,3.3-5.1,2.4,3,8.2,12.2,4.7,11.2,15,3.9-2.3,3.5-5.3,4-10.2l4.5,8.4c1.5-4.1,4.6-7.8,8.7-6.9,2,4.2.2,5.2-3.7,3.4-3.6,8.5-1.6,20.8,1,29.3Z"/>
    <path class="st8" d="M533.8,278.6c6.8,4.7,11.5,11.8,20.5,12.8,1.1.1,2.7,1.6,3.8,2.1,2.3-3.7,6.8-2.4,6,2.3l-8.4,3c1.9,4,1.9,6.6.6,9.2,0,2.8-2.2,4.2-6.7,4-2.6,15.7-14.2,2.3-15.4-7.9-2.9.9-5.2-.5-6.9-4.1-25.9.9-19.2-20.1,2.4-17.6l-.5-2.5c-1-2.9.5-3.3,4.6-1.3Z"/>
    <path class="st27" d="M511.3,258.1l1.7-.5,9.4,13,11.4,8c-1.7,0-3.3.5-4.6,1.3-4.8,2.7-8.6.6-12.6-3.2-2.7,2.8-7.5,1.5-9.8,1.8-5,2.2-12.6,4.6-17.9.3-3.4,2.6-6.1,3.6-9.9,1.3s-2.2-3.7-3.9-6.8c-2.5-4.4-5.5-7.4-2.1-12-2.8-.1-2.8-1.8-3-2.6-.4-1.9-2-1-2,0s-.9,3-1.8,4c-3,1.3-5.1-3.3-5.3-5.9-.2-2.7,1.4-5.7,5-5.2s4.4.5,5.4-.7.8-3.1.5-4.5c4.8,2.5,6.6,7.8,11.2,11.7s1.4-1.8.9-2.3.7-2.1,3.2-2.5l-5.8-.8c-2.5-.4,1.2-4.4,2.8-3.7,7,3.1.9,6.4,10,13.1-3.8,2-5.6,1.6-9.8,1.4-.2,2.1,1.3,2.4,1.8,3.1s0,2.5-.4,4.2c1.1-.7,5.2-1.5,6.7-.9s2.1,2.7,3.6,6.3l8.3-2.1c-2.6-1.5-5.2-2.4-5.8-3.7-1.1-2.5,3-3.1,3.7-4.2,1.2-2.2,2.2-7.1,5.1-7.1l3.3,2.5c.5.4,1.3-2.6,1.1-3.1Z"/>
    <path class="st11" d="M422.7,325.9c1.1.4,1.8,1.5,2,3.4v11.3s0,1.9,0,1.9c-5.1-2.3-9.8-6.1-12-12.3s2.8-4.7,3.9-6.3c3-2.3,4.4-.9,6.1,2.1Z"/>
    <path class="st58" d="M424.7,319.8c-.5,2.2-1.2,4.2-2,6-.9.5-1.9.8-2.8.7-1.6-.2-2.6-1.3-3.3-2.8l5.3-7.8-3.3-7.3c8.8,0,.7-8.9,6.2-15.3v26.4Z"/>
    <path class="st25" d="M540.5,351.9c-.3,4.7-4.7,3.7-13.8-.2-.6,1.9,0,2.6.5,3.6,1.6,2.5-1.9.3-6,1.9-1.6-2.5,2.1-5.1,4.8-6.3-1.6-2.8-3.3-6-3.1-8.7.3-4.3,3.9-4.7,6.8-7.9l3.3-3.6c.8-.9,3.4.7,4,1.7,1,1.7.8,4.7-1.2,6.6l-3.1,3c-.8.7,1.4,2.7,2,3.6-2.9,3.7-4.2,5.1-1.1,4.2l5.1-1.5c2.1-.6,1.9,1.8,1.8,3.4Z"/>
    <path class="st25" d="M424.7,329.2c-1.1-.8-1.8-2-2-3.4-.3-2.2,0-4.9,2-6v9.4Z"/>
    <path class="st98" d="M552.5,383.5l-10.9-.8c-.2-4.5,3.1-2.8,4.5-2.9,2.6-.2,5.4.4,6.4,3.7Z"/>
    <path class="st50" d="M425.4,220.5c-.7,1.5-.6,3.8-.7,5.5-.7,1.7-1.8,3.7-3.7,3.7-1,1.9-.8,3.7,0,5.7,1.7-4,2.9-2.2,3.7,1.8,0,4.9,1.6,9.5,1.5,15l-.4,15.4c2.9,6.6.6,8.7.1,14l-2.6,2c-1.2,1.1-2,.3-2.8-1.3-1.3-2.7-5.3-2.8-7.9-2s-.9.5-1.1,1c-1.3,3-4.6,2.9-8.2,5.5-1.2-.4-3.8-2.4-5.4-5.2,3-1.5,3.2.6,4.1,1.2,1.5,1.2,3.2-.8,3.4-2.2s-.7-3.1-3.1-4.7c1.3-3.7-3-4.2-3-.7l-2.1,2.8c-.6.8-2.7.1-2.7-.7,0-1.7,1.6-3,4.4-3.7-4.2-1.8-7.7-3.9-7.7-8.5,2.6-.3,3.9-3.3,4.6-5.3,1.2-3-3.3-4.9-3.5-7.2l-1-16c-2.8,1.4-4.4,3.5-6.9,5.9-.7-3.1-2.7-5.3-6.1-5.9-.1-1.3.5-2.2,1.2-2.6,1-.6,2.4-.2,5,.8-.9-2.6-2.7-4.5-2.2-7.9l-4.1.5c-1.9.2-3.6-2.3-4.1-4.6,1.6-1.1,4.8-1.5,6.6-3.9.7,1.7,1.3,3.2,1.9,3.7s3-.8,2.7-1.4c-.5-1-1.3-3.2-3.1-5.1-9.8,4.9-13.5-4.6-17.5,1.4-1.1,1.6-1.6,4,1.4,5.9l-10.6,8.3c-.4,1.3,1.6,2.6,2.7,1.5s1.8-1.2,3.6-5c1.9,1.4,1.8,4.7.5,6.9s-2.8,2.3-5,3.4c-.7,1.6.3,3.5.9,3.5.9,0,2.5-1.6,3.4-2.6,3.5.6,6.8,3.6,9.1,7-5.4.4-9.2.1-12.8,3-1.6-2.1-3.5-3-5.3-3.2s-4.1,1.6-4.5,3.1c1.5.6,3,1.3,3.3,2s-.1,2.5-.8,2.7c-1.1.3-3,.5-4.4-.2l-7.1-3.4c-.7-.3-17.2,8.9-6.1,10-4,2.1-6.1,4.5-9.1,9.3l-2.4-4.6c1-3.1,3.2-2.8,4.3-4,4.1-4.7-8.5-15.1-.9-16.4s3.9,1,6,2.4,5.1-2.3,6.2-5.5c-4.3.8-9.3-1-14.1-2-.8-2.2-2-5.5-4.9-6.4-2.2-1.4-1.6-2.1,1.9-2.1-1.7-3.3.5-6.8,6.4-10.6.8-4,3.2-6.7,7.1-4.8s-1.9-.5,0-3.2c.7-2.6-2.5-5.4-4.4-5.6-.2-1.1-.2-2.1.6-3.2,3.5,2.2,6.8,1.8,10.5,2-1.2,2-3.9,2.9-4,4s2.6,3.1,4.8,3c-.9,3.9,4,4.5,3.4.5.2-2.6,1.2-7,2.5-7.2l4.9-.8c2.7-.4,4-3.6,6.5-3.4s3.1,1.7,3.8,3.4c1.3-2.8,2.6-4.4,4-5.2s3.8.2,5.5.3c3.1-1.6,5.4-4.3,7.9-4.1,0,5.2,2,7.7.5,12.3,3.9-3,6.6-3.5,10.2-2.9l2.1,12.5-2.8,2.8c-.5.5,1.9,2.7,2.7,2.4l3-1c5.3-1.8,8.9-3.1,13.2,1.8,1-4.4,3.5-8.9,7.3-7.7.4,2.4,1.4,7.2,4.8,6.5s3.6-1.6,5.3-2.8Z"/>
    <path class="st72" d="M424.7,225.9v11.3c-1.1-.5-2.6-1.6-3.8-1.8-3.7-1.6-3.2-3.8,0-5.7.6-.9.6-1.6.7-2.2.2-1.2,1.9-2.1,3-1.5Z"/>
    <path class="st92" d="M343.7,245.7c.8-3.2,3.1-3.4,4.9-4.2-6.4-1.6-7.1-5-11.4-9.3,4.2-.5,14-.9,16.8,3.3,2.3,5.4-5.9,11.3-10.3,10.2Z"/>
    <path class="st85" d="M423,271.5c-3.7-1.1-6.2-.7-9.7-3.1,1.2-.4,3.3-1.3,3.8-2.4s-1.3-3.8-3.4-4.9l8.6-5.4.8,15.9Z"/>
    <path class="st92" d="M350.3,227.2c.9-2.6,3-2.8,2.9-2.1-.1,1.2,2.4,3.5,1.8,3.8l-4.5,2.4c-2.3-1.7-4.7-4.8-4.6-9.2,2.7,1.3,3,2.9,4.4,5.1Z"/>
    <path class="st60" d="M421,235.4c-2.4-.3-4.3-.7-5.8-3.3l5.8-2.4v5.7Z"/>
  </g>
  <rect class="st24" x="31.6" width="930.2" height="764"/>
</svg>